<svg xmlns="http://www.w3.org/2000/svg" width="1629" height="470.252" viewBox="0 0 1629 470.252"><defs><style>.a{fill:rgba(0,0,0,0);}.b{fill:#91703f;}</style></defs><g transform="translate(0 -1536)"><g transform="translate(-1848.093 2585.283)"><rect class="a" width="543" height="470.252" transform="translate(1848.093 -1049.283)"/><g transform="translate(1848.093 -1049.283)"><path class="b" d="M1870.664-579.861l-1.437.829h6.063l-1.436-.829,14.027-8.1-.019,8.928h1.542l.02-9.82,20.095-11.6,12.368,21.421H2060.63l-.008-.005,39.928-23.192,15.214,8.784L2090.8-579.031h3.191l22.571-13.031v13.031h1.595v-13.031l1.437.829-1.117-1.934-.319-.553-1.595-2.763v1.659l-14.421-8.326,15.857-9.21v16.707l-1.436-.829,1.117,1.935.32.553h0l1.6,2.763v-1.658l22.571,13.031-1.437.829h6.063l-1.436-.829,14.027-8.1-.019,8.928h1.542l.02-9.82,20.095-11.6,12.368,21.421H2332.13l-.008-.005,39.928-23.192,15.214,8.784L2362.3-579.031h3.191l22.57-13.031v13.031h1.6v-13.031l1.437.829-1.117-1.934-.319-.553-1.6-2.763v1.659l-14.421-8.326,15.857-9.21v16.707l-1.436-.829,1.117,1.935.319.553h0l1.6,2.763V-723.58l-1.437.829v-26.063l1.437.829V-880.331l-1.6,2.763h0l-.319.553-1.117,1.935,1.436-.829v16.232l-15.556-8.909,14.119-8.152v1.659l1.6-2.763.319-.553,1.117-1.934-1.437.829v-26.062l1.437.829v-132.346l-1.437.829v-13.031h-1.6v13.031l-22.57-13.031H2362.3l24.964,14.413-14.924,8.616-40.211-23.029H2193.388l-12.368,21.421-20.136-11.625.021-9.8h-1.542l-.019,8.906-13.99-8.077,1.436-.829h-6.063l1.437.829-22.571,13.031v-1.658l-1.437.829v-13.031h-1.595v13.031l-22.571-13.031H2090.8l24.964,14.413-14.923,8.616-40.211-23.029h-2.583l20.67,35.8-15.917,9.189-25.393-44.22h20.64v-.771H1921.888l-12.368,21.421-20.136-11.625.021-9.8h-1.542l-.019,8.906-13.99-8.077,1.436-.829h-6.063l1.437.829-22.571,13.031v2.763l24.964,14.413v-28.826l14.783,8.535-.1,45.733-39.651-22.709v1.777l38.868,22.26h-38.868v1.6h40.447l10.452,18.2h-50.9v1.542h51.785l25.836,44.991-15.609,9.012-20.67-35.8h-.247c-.016-.011-.028-.025-.044-.034a.772.772,0,0,0-.773,0l-.056.033h-40.22v1.6h37.473l-37.473,21.766v1.784l39.89-23.17-.1,46.655-14.828,8.561v-28.826l-24.964,14.413v2.763l22.571,13.031-1.437.829,1.437.829-22.571,13.031v2.763l24.964,14.413v-28.826l14.783,8.535-.1,45.733-39.651-22.709v1.777l38.868,22.26h-38.868v1.6h40.447l10.452,18.2h-50.9v1.542h51.785l25.836,44.991-15.609,9.013-20.67-35.8h-.247c-.016-.011-.028-.025-.044-.034a.771.771,0,0,0-.773,0l-.056.033h-40.22v1.6h37.473l-37.473,21.766v1.784l39.89-23.169-.1,46.655-14.828,8.561v-28.826l-24.964,14.413v2.763l22.571,13.031-1.437.829h0l1.437.829-22.571,13.031v2.763l24.964,14.413v-28.826l14.783,8.535-.1,45.733-39.651-22.709v1.777l38.868,22.261h-38.868v1.6h40.447l10.452,18.2h-50.9v1.542h51.785l25.836,44.991-15.609,9.012-20.67-35.8h-.248c-.015-.011-.028-.024-.044-.034a.77.77,0,0,0-.773,0l-.056.033h-40.22v1.6h37.473l-37.473,21.766v1.784l39.89-23.17-.1,46.655-14.828,8.561v-28.826l-24.964,14.413v2.763Zm.8-158.132-22.57-13.031,22.57-13.031Zm0,30.484-22.57-13.031,22.57-13.031Zm16.42-37.2-.038,17.834-13.99-8.077,1.436-.829h0l-1.436-.829Zm-16.42-150.034-22.57-13.031,22.57-13.031Zm0,30.484-22.57-13.031,22.57-13.031Zm16.42-37.2-.038,17.834-13.99-8.077,1.436-.829-1.436-.829Zm-16.42-119.55-22.57-13.031,22.57-13.031Zm30.195,364.374h21.085l20.225,35.031-15.917,9.19Zm79.156-18.224,1.091,1.89-1.091-1.89v1.658l-13.836-7.988,15.273-8.871v16.029Zm-24.22-79.9h25.656v18.2h-36.471l-17.933-31.229,15.92-9.191,12.828,22.219.921-1.6-12.367-21.421,20-11.548,17.1,9.794v23.175h-24.735Zm24.22-41.949,1.436-.829V-781.3l-15.556-8.909,14.12-8.152v1.659l1.436-2.488-.32.553Zm-35.483-94.283,10.594,18.449.118-.067-12.277,21.264-15.923-9.193Zm-18.823,29.682-15.6-9.009,12.383-21.448h20.71Zm17.842,12.143,18.912,10.919-37.938,22.036Zm20.452,11.808,15.214,8.784-24.964,14.413,24.964,14.413-14.924,8.616-40.218-23.034Zm-1.255,47.117-19.2,11.083L1925.3-812.137Zm17.267-36.952v26.063l-22.571-13.031Zm-35.483,92.952,10.594,18.449.118-.067-12.277,21.264-15.923-9.193Zm-18.823,29.682-15.6-9.009,12.383-21.448h20.71Zm17.842,12.143,19.5,11.257-39.112,22.718Zm37.9-42.6v18.2h-25.133l-10.453-18.2Zm0,19.8v23.37l-16.813,9.766-20.29-11.714,12.367-21.421-.644-1.116h0l.645,1.116Zm-1.436,70.839-22.571-13.031,22.571-13.031Zm-.8,1.382-15.252,8.806-39.63-22.7,40.253-23.38,14.629,8.446-24.964,14.413Zm-16.8,9.7L1944.348-622.4l-18.717-32.42Zm-61.564-24.882,25.394-44.222,15.92,9.191-20.225,35.031Zm-11.775-18.97,20.227-35.035,15.606,9.011-25.388,44.213Zm-.5-47,19.342,11.167-19.436,33.664Zm19.342-34.438-19.293,11.139.093-44.395Zm13.166,22.8-12.368,21.421-20.136-11.625.041-19.615,20.095-11.6Zm4.62-31.229L1944-736.553h-20.714L1910.9-758Zm-24.852-46.375h21.085l20.225,35.031-15.917,9.19Zm0-1.542,25.395-44.222,15.919,9.191-20.225,35.031Zm-11.775-18.97,20.227-35.034,15.606,9.011-25.388,44.213Zm-.5-47,19.342,11.167-19.436,33.664Zm19.342-34.438L1889.43-904.2l.093-44.395Zm13.166,22.8-12.368,21.421-20.136-11.625.041-19.615,20.095-11.6Zm4.62-31.229L1944-893.3h-20.714L1910.9-914.751Zm-24.852-46.375h21.084l20.225,35.031-15.917,9.19Zm78.357,13.642-14.924,8.616-40.218-23.034L1964.8-994.1l15.214,8.784-24.964,14.413Zm-21.773-14.413,22.571-13.031v26.063Zm-32.92-2.049,19.027-32.955,18.912,10.919Zm38.223,25.971-19.2,11.083L1925.3-968.888Zm-61.9-24.693,25.279-44.292,16.041,9.261-20.225,35.031Zm7.077-54.8-19.436,33.664.094-44.831Zm1.382.8,15.485,8.94-25.271,44.277-10.441-18.183Zm33.617-22.829-17.341,30.384-15.478-8.936,12.383-21.448Zm.888,0Zm.446.775,10.77,18.755-12.061,20.89-16.048-9.265Zm37.193,17.426H1956.84l-10.452-18.2h35.86Zm0,24.288-17.4,10.105-19.7-11.377,12.367-21.421-.437-.756h0l.437.756h24.735Zm-1.436,17.662,1.116,1.934.32.553-1.436-2.488v1.658l-14.421-8.326,15.857-9.21v16.707Zm1.436,50.309-15.556-8.909,14.12-8.152v1.659l1.436-2.488-.32.553-1.116,1.935,1.436-.829Zm0,44.748h-36.471l-17.933-31.229,15.92-9.191,12.828,22.219.921-1.6-12.367-21.421,20-11.548,17.1,9.794V-913.1h-24.735l-.921,1.6h25.656Zm0,19.744h-25.133l-10.452-18.2h35.585Zm0,24.288-17.4,10.105-19.7-11.377,12.367-21.421-.644-1.116h0l.645,1.116h24.735Zm1.6,175.241v-16.956l40.15-23.321-.1,45.977-15.09,8.712v-28.826Zm23.368-11.649v26.063l-22.57-13.031Zm0,30.484v26.063l-22.57-13.031Zm3.829-2.211-1.437-.829,14.288-8.25-.038,18.136-14.251-8.227Zm-27.2-35.364v-22.444h38.64Zm0-24.039v-18.2h51.785l25.836,44.992-15.609,9.012-20.67-35.8Zm108.5,40.429H2118v18.2h-36.471l-17.933-31.229,15.92-9.191,12.828,22.218.921-1.6L2080.9-699.4l20-11.547,17.1,9.794v23.174h-24.735Zm24.22-76.855,1.117,1.935.32.553h0l.312.54-.153-.265-1.595-2.763v1.659L2102.14-759.9l15.857-9.21v16.707Zm-24.22-79.9H2118v18.2h-36.471l-17.933-31.229,15.92-9.191,12.828,22.218.921-1.6L2080.9-856.147l20-11.547L2118-857.9v23.174h-24.735Zm24.22-76.855,1.117,1.935.32.553h0l.277.479-.118-.2-1.595-2.763v1.659l-14.421-8.326,15.857-9.21v16.707Zm-71.291-82.343,12.368,21.421-12.368,21.421-20.136-11.625.041-19.615Zm-20.091,9.758.093-44.395,19.2,33.256Zm20.091,146.993,12.368,21.421-12.368,21.421-20.136-11.625.041-19.615Zm-20.091,9.758.093-44.395,19.2,33.256Zm12.226,90.81h21.085l20.225,35.031-15.917,9.19Zm42.342,76.833h-20.714l-12.383-21.448,15.606-9.011Zm-18.694-75.584,38.24,21.9-19.2,11.083Zm-23.652-2.791,25.394-44.222,15.92,9.191-20.225,35.031Zm43.676-76.058,10.594,18.449.118-.068-12.277,21.264-15.923-9.193Zm-18.823,29.681-15.6-9.009,12.383-21.448h20.71Zm17.842,12.143,18.912,10.919-37.938,22.036Zm-44.025,33.453-10.445-18.189,20.227-35.034,15.606,9.011Zm-11.035-20.357.094-44.831,19.342,11.167Zm21.615-78.685,15.606-9.011,17.49,30.458h-20.714Zm-9.246-55.386h21.085l20.225,35.031-15.917,9.19Zm23.648,1.249,38.24,21.9-19.2,11.083Zm-2.564-2.792H2037.41l25.389-44.221,15.917,9.19Zm21.607-34.233,18.912,10.919-37.938,22.036Zm-44.021,33.459-10.449-18.2,20.227-35.034,15.609,9.012Zm-11.039-20.363.094-44.831,19.342,11.167Zm34-55.7h20.71l-17.487,30.457-15.606-9.01Zm22.044.774,10.594,18.449.118-.068-12.277,21.264-15.921-9.192Zm1.334-.774H2118v18.2h-25.133ZM2118-950.34v22.693l-17.4,10.1L2080.9-928.919l12.367-21.421-.644-1.116h0l.645,1.116Zm-1.436,70.838-22.571-13.031,22.571-13.031Zm-.8,1.382L2100.84-869.5l-40.219-23.034,39.928-23.192,15.214,8.784L2090.8-892.532ZM2118-813.386v18.2h-25.133l-10.452-18.2Zm0,19.8V-770.9l-17.4,10.105L2080.9-772.168l12.367-21.421-.644-1.116h0l.645,1.116Zm-1.436,70.838-22.571-13.031,22.571-13.031Zm-.8,1.382-14.923,8.616-40.219-23.034,39.928-23.192,15.214,8.784L2090.8-735.782Zm-35.129,64.733h0Zm37.364,0v18.2h-25.133l-10.452-18.2Zm-26.207,19.156-12.277,21.264-15.946-9.206,17.511-30.44,10.594,18.45Zm-29.559,11.287-15.581-9,12.383-21.448h20.71Zm-16.962-9.793L2025.4-647.461l.042-19.916,19.833-11.451,12.368,21.421Zm-19.83-33.235.092-43.794,18.94,32.805Zm19.032,34.617-19.174,33.21.092-44.227Zm-60.629-101.949v-18.2h40.447l10.452,18.2Zm27.2-77.6-1.437-.829,14.028-8.1-.038,17.834-13.99-8.077Zm-27.2,57.807v-22.261l38.869,22.261Zm0-24.038v-17.145l24.964,14.413v-28.826l14.783,8.535-.1,45.732Zm.8-18.527,22.57-13.031v26.063Zm-.8-31.866v-17.634l39.89-23.169-.1,46.655-14.828,8.561v-28.826Zm23.368-11.649v26.063l-22.57-13.031Zm-23.368-7.768v-21.766h37.473Zm0-23.362v-18.2h51.785l25.836,44.992-15.609,9.012-20.67-35.8h-.248c-.015-.01-.028-.024-.044-.034a.771.771,0,0,0-.773,0l-.056.032Zm0-19.744v-18.2h40.447l10.452,18.2Zm39.89-135.031-.1,46.655-14.828,8.561v-28.826l-24.964,14.413v-17.634Zm-39.89,21.386v-21.766h37.474Zm23.368,7.768v26.063l-22.57-13.031Zm0,30.484v26.063l-22.57-13.031Zm3.829-2.211h0l-1.437-.829,14.028-8.1L2023.594-962l-13.99-8.077,1.437-.829Zm-27.2,57.807v-22.261l38.868,22.261Zm0-24.038v-17.145l24.964,14.413V-968.7l14.783,8.535-.1,45.732Zm0-19.908v-1.659l-1.436.829v-26.062l1.436.829v-1.659l22.571,13.031-1.437.829h0l1.437.829Zm77.621-46.473-15.609,9.012-20.67-35.8h-.248c-.015-.01-.028-.024-.044-.034a.771.771,0,0,0-.773,0l-.056.032h-40.22v-18.2h51.785Zm18.284,31.841h-20.714l-12.383-21.448,15.606-9.011Zm19.546-53.683-19.2,11.083-19.043-32.984Zm1.6.917,17.1,9.794v23.174h-24.735l-.921,1.6H2118v18.2h-36.471l-17.933-31.229,15.92-9.191,12.828,22.219.921-1.6L2080.9-1012.9Zm17.531-10.617-.429.743-.32.553-1.117,1.935,1.436-.829v16.232l-15.557-8.909,14.12-8.152v1.659l1.595-2.763Zm1.166,130.326v-1.658l22.571,13.031-1.437.829,1.437.829-22.571,13.031v-1.658l-1.6,2.763h0l-.32.553-1.117,1.935,1.436-.829v16.232l-15.556-8.909,14.12-8.152v1.659l1.595-2.763.319-.553,1.117-1.934-1.437.829v-26.062Zm0,152.329V-770.04l39.89-23.169-.1,46.655-14.828,8.561v-28.826Zm23.368-11.649v26.062l-22.57-13.031Zm0,30.484v26.062l-22.57-13.031Zm3.829-2.211h0l-1.436-.829,14.027-8.1-.037,17.834-13.99-8.077,1.436-.829Zm-27.2-36.041v-21.766h37.473Zm0-23.361v-18.2h51.785l25.836,44.991-15.609,9.013-20.67-35.8h-.247c-.016-.011-.028-.025-.044-.034a.771.771,0,0,0-.773,0l-.056.033ZM2252.312-674.86l1.091,1.89-1.091-1.89v1.658l-14.421-8.326,15.857-9.211v16.707Zm3.031.829v-17.634l39.89-23.169-.1,46.655-14.828,8.561v-28.826Zm23.368-11.649v26.063l-22.57-13.031Zm0,30.484v26.063l-22.57-13.031Zm3.829-2.211-1.436-.829,14.027-8.1-.037,17.834-13.99-8.077Zm-27.2-36.041v-21.766h37.473Zm0-23.361v-18.2h51.785l25.836,44.992-15.609,9.012-20.67-35.8h-.248c-.015-.01-.028-.024-.044-.034a.771.771,0,0,0-.773,0l-.057.033Zm108.5,40.429H2389.5v18.2h-36.47l-17.933-31.229,15.92-9.191,12.828,22.218.921-1.6L2352.4-699.4l20-11.547,17.1,9.794v23.174h-24.735Zm23.422-44.989-14.924,8.616-40.219-23.034,39.928-23.192,15.214,8.784L2362.3-735.782Zm-21.773-14.413,22.57-13.031v26.062Zm-48.72-256.547,12.367,21.421-12.367,21.421-20.136-11.625.041-19.615Zm-20.091,9.758.093-44.4,19.2,33.256Zm-1.446-45.763-.1,46.655-14.828,8.561v-28.826l-24.964,14.413v-17.634Zm-39.89,21.386v-21.766h37.473Zm0,69.81v-17.146l24.964,14.413V-968.7l14.783,8.535-.1,45.732Zm38.868,24.038h-38.868v-22.26Zm-11.67-57.807h0l-1.436-.829,14.027-8.1L2295.094-962l-13.99-8.077,1.436-.829Zm-26.4,15.242,22.57-13.031v26.063Zm22.57-43.515v26.063l-22.57-13.031Zm17.078,87.676,10.452,18.2h-50.9v-18.2Zm-40.447,80.724v-17.634l39.89-23.169-.1,46.655-14.828,8.561v-28.826Zm23.368-11.649v26.063l-22.57-13.031Zm0,30.484v26.063l-22.57-13.031Zm3.829-2.211-1.436-.829,14.027-8.1-.037,17.834-13.99-8.077Zm-27.2-36.041v-21.766h37.473Zm0-23.362v-18.2h51.785l25.836,44.992-15.609,9.012-20.67-35.8h-.248c-.015-.01-.028-.024-.044-.034a.771.771,0,0,0-.773,0l-.056.032Zm52.232,136.232-10.448-18.2,20.227-35.034,15.609,9.012Zm.445.774h0Zm.885,1.542h21.085l20.225,35.031-15.917,9.19Zm42.342,76.833h-20.714l-12.383-21.448,15.606-9.011Zm-18.694-75.584,38.24,21.9-19.2,11.083ZM2316.77-835.579l12.367,21.421-12.367,21.421-20.136-11.625.041-19.615Zm-20.091,9.758.093-44.4,19.2,33.256Zm33.855,12.435h20.711l-17.487,30.458-15.606-9.01Zm3.765,32.612,15.917,9.19-20.225,35.031H2308.91Zm-37.762,23.083.094-44.831,19.342,11.167ZM2329.991-893.3H2308.91l25.389-44.221,15.917,9.19Zm21.607-34.233,18.912,10.919-37.939,22.036Zm-17.84-12.142-15.606-9.01,12.383-21.447h20.711Zm-26.182,45.6-10.449-18.2,20.227-35.034,15.609,9.012Zm.445.774Zm-11.484-21.138.094-44.831,19.342,11.167Zm21.615-78.685,15.606-9.011,17.49,30.458h-20.714Zm34.427,23.764,10.594,18.449.118-.068-12.277,21.264-15.92-9.192Zm1.334-.774H2389.5v18.2h-25.133Zm35.584,19.8v22.693l-17.4,10.1L2352.4-928.919l12.367-21.421-.644-1.116h0l.644,1.116Zm-2.234,43.394L2363.635-893.3h-30.194l38.609-22.425Zm-16.469,38.334-19.2,11.083-19.043-32.984Zm-20.578,11.881-15.917,9.19-25.393-44.22h21.085Zm1.032,41.8h-20.714l-12.383-21.448,15.606-9.011Zm1.331,2.317,10.594,18.449.118-.068-12.277,21.264-15.92-9.191Zm-.981,41.825,18.912,10.919-37.938,22.036Zm.536,114.151h0Zm37.363,0v18.2h-25.133l-10.452-18.2Zm-26.207,19.156-12.277,21.264-15.932-9.2,17.5-30.448,10.594,18.45Zm-29.544,11.3-15.595-9,12.383-21.448h20.71Zm-16.976-9.8-20.136-11.625.041-19.615,20.095-11.6,12.367,21.421h0Zm-20.091-33.085.093-44.4,19.2,33.256Zm19.293,34.466-19.436,33.664.094-44.831Zm-60.629-101.949v-18.2h40.447l10.452,18.2Zm0-19.8v-22.261l38.868,22.261Zm0-24.038v-17.146l24.964,14.413v-28.826l14.783,8.535-.1,45.732Zm0-19.909v-1.659l-1.6,2.763h0l-.32.553-1.116,1.935,1.436-.829V-781.3l-15.556-8.909,14.12-8.152v1.659l1.595-2.763.319-.553,1.117-1.935-1.437.829v-26.062l1.437.829-1.117-1.935-.319-.553-1.595-2.763v1.658l-14.421-8.326,15.857-9.211v16.707l-1.436-.829,1.116,1.935.32.553,1.6,2.763v-1.659l22.571,13.031-1.437.829,1.437.829Zm-27.251-111.209h25.656v18.2h-36.471l-17.933-31.229,15.92-9.191,12.828,22.219.921-1.6-12.367-21.421,20-11.548,17.1,9.795V-913.1h-24.735Zm23.422-44.989-14.924,8.616-40.218-23.034L2236.3-994.1l15.214,8.784-24.964,14.413Zm-21.773-14.413,22.571-13.031v26.063Zm-32.527,45.763-15.609,9.012-20.67-35.8h-.247c-.016-.011-.028-.025-.044-.034a.771.771,0,0,0-.773,0l-.056.033h-40.22v-18.2h51.785Zm-24.944-46.534Zm-52.677,62.523V-926.79l39.89-23.169-.1,46.655-14.828,8.561v-28.826Zm23.368-11.649v26.062l-22.57-13.031Zm0,30.484v26.062l-22.57-13.031Zm3.829-2.211-1.436-.829,14.027-8.1-.037,17.834-13.99-8.077Zm-27.2-36.041V-950.34h37.473ZM2181.02-757.2l12.368,21.421-12.368,21.421-20.136-11.625.041-19.615Zm-20.091,9.757.093-44.395,19.2,33.256Zm67.163-7.309h25.656v18.2h-36.471l-17.933-31.229,15.92-9.191,12.828,22.219.921-1.6-12.367-21.421,20-11.548,17.1,9.795v23.174h-24.735Zm23.422-44.989-14.924,8.616-40.218-23.034,39.928-23.192,15.214,8.784-24.964,14.413Zm-21.773-14.413,22.571-13.031v26.063Zm-12.912-76.83,10.594,18.449.118-.067-12.277,21.264-15.923-9.193Zm-.445-.774Zm-35.364-22.192,12.368,21.421-12.368,21.421-20.136-11.625.041-19.615Zm-20.091,9.757.093-44.395,19.2,33.256Zm33.855,12.435h20.71l-17.489,30.456-15.6-9.009Zm-12.383-22.99,15.606-9.01L2215.5-893.3h-20.714Zm33.446,65.59,18.912,10.919-37.938,22.036Zm19.2,58.926-19.2,11.083L2196.8-812.136Zm-18.66,55.225Zm.445.774,10.594,18.449.118-.068-12.277,21.265-15.92-9.192Zm36.919-.774v18.2h-25.133l-10.452-18.2Zm0,19.8v22.693l-17.4,10.105-19.7-11.377,12.367-21.421-.645-1.116h0l.645,1.116Zm-18.989,33.721-37.938,22.036,19.026-32.955Zm-40.519,23.315h-21.081l25.389-44.221,15.917,9.19Zm3.767-46.376-15.606-9.01,12.383-21.448h20.71ZM2182.4-758l15.606-9.01,17.49,30.458h-20.714Zm-9.246-55.386h21.085l20.225,35.031-15.917,9.19Zm0-1.542,25.394-44.222,15.92,9.191-20.225,35.031Zm-1.33-.781L2161.377-833.9l20.227-35.034,15.606,9.011Zm-11.035-20.357.094-44.831,19.342,11.167Zm12.369-134.07h21.085l20.225,35.031-15.917,9.19Zm23.648,1.249,38.24,21.9-19.2,11.083Zm-23.647-2.792,25.2-44.329,16.1,9.3-20.225,35.031Zm42.69-34.233,18.912,10.919-37.939,22.036Zm37.9,114.151v18.2h-25.133l-10.452-18.2Zm0,19.8v22.693l-17.4,10.105-19.7-11.377,12.367-21.421-.645-1.116h0l.645,1.116Zm-1.436,227.589-22.571-13.031,22.571-13.031Zm-.8,1.382-14.924,8.616-40.218-23.034L2236.3-680.6l15.214,8.784-24.964,14.413Zm-16.469,9.508-19.2,11.083L2196.8-655.386ZM2214.466-621.6l-15.917,9.19-25.393-44.221h21.085Zm-42.641-37.348-10.448-18.195,20.227-35.035,15.609,9.012Zm-11.039-20.363.094-44.831,19.342,11.167Zm-41.194-135.613v-18.2h40.446l10.452,18.2Zm0-19.8v-22.26l38.868,22.26Zm0-24.038v-17.146l24.964,14.413v-28.826l14.783,8.535-.1,45.733Zm0-154.973,38.868,22.26h-38.868Zm23.368-7.274-22.57-13.031,22.57-13.031Zm16.379-17.527-.1,45.733-39.651-22.709v-17.146l24.964,14.413v-28.826Zm.7,48.656,10.452,18.2h-50.9v-18.2Zm20.183-36.6-19.436,33.664.094-44.831Zm1.382.8,15.422,8.9-25.2,44.324-10.448-18.194Zm33.465-22.829-17.254,30.347-15.413-8.9,12.383-21.448Zm.887,0Zm.446.776,10.845,18.887-11.985,20.758-16.113-9.3Zm37.345,17.425h-25.56l-10.452-18.2h36.012Zm0,24.288-17.4,10.105-19.7-11.377,12.367-21.421-.475-.822h0l.475.822h24.735Zm0,20.15,1.6,2.763v-1.659l22.571,13.031-1.437.829h0l1.437.829-22.571,13.031v-1.659l-1.6,2.763h0l-.32.553-1.116,1.935,1.436-.829v16.232l-15.557-8.909,14.12-8.152v1.659l1.595-2.763.319-.553,1.117-1.935-1.437.829v-26.062l1.437.829-1.117-1.935-.319-.553-1.595-2.763v1.658l-14.421-8.326,15.857-9.211v16.707l-1.436-.829,1.116,1.934.32.553Zm53.38-62.639,25.836,44.992-15.609,9.012-20.67-35.8h-.248c-.015-.01-.028-.024-.044-.034a.771.771,0,0,0-.773,0l-.056.032h-40.22v-18.2Zm22.863,0,20.225,35.031-15.917,9.189-25.393-44.22Zm40.8,23.15-19.2,11.083-19.043-32.984Zm1.6.917,17.1,9.794v23.174h-24.735l-.921,1.6H2389.5v18.2h-36.47l-17.933-31.229,15.92-9.191,12.828,22.219.921-1.6L2352.4-1012.9Zm17.531-10.617-.429.743-.319.553-1.117,1.935,1.436-.829v16.232l-15.556-8.909,14.12-8.152v1.659l1.6-2.763Zm-1.865,125.075v1.659l-14.421-8.326,15.857-9.21v16.707l-1.436-.829,1.117,1.935.319.553h0l.277.479-.118-.2Zm0,30.484-22.57-13.031,22.57-13.031Zm-15.721,10-38.864-22.258h30.159l23.628,13.642Zm17.157,54.575h-36.47l-17.933-31.229,15.92-9.191,12.828,22.218.921-1.6L2352.4-856.147l20-11.547,17.1,9.794v23.174h-24.735l-.921,1.6H2389.5Zm0,19.744h-25.132l-10.452-18.2H2389.5Zm0,24.287-17.4,10.105L2352.4-772.168l12.367-21.421-.644-1.116h0l.644,1.116H2389.5Zm.159,20.425-1.6-2.763v1.659L2373.64-759.9l15.857-9.21v16.707l-1.436-.829,1.117,1.935.319.553h0l.313.54Zm-.159,29.655h0l-.319.553-1.117,1.935,1.436-.829v16.232l-15.556-8.909,14.119-8.152v1.659l1.6-2.763.27-.468Zm-37.1,105.4,12.367-21.421-.644-1.116h0l.644,1.116H2389.5v22.692l-17.4,10.105Zm-19.824,34.337,19.026-32.955,18.912,10.919Zm-23.7,1.278,25.414-44.227,15.929,9.2L2329.991-579.8Zm-1.331-.779-10.416-18.189,20.228-35.036,15.6,9.005ZM2255.343-598h40.445l10.423,18.2h-50.868Zm0-23.856,38.868,22.261h-38.868Zm0-18.923,24.964,14.413V-655.2l14.783,8.535-.1,45.732-39.651-22.709Zm0-4.422-1.6,2.763h0l-.32.553-1.116,1.935,1.436-.829v16.232l-15.556-8.909,14.12-8.152v1.659l1.595-2.763.319-.553,1.117-1.935-1.437.829v-26.063l1.437.829-1.117-1.935-.319-.553-.454-.787.3.512,1.6,2.763v-1.659l22.571,13.031-1.437.829,1.437.829-22.571,13.031Zm-38.066,65.4-17.933-31.229,15.92-9.191L2228.092-598l.921-1.6-12.367-21.421,20-11.548,17.1,9.794V-599.6h-24.735l-.921,1.6h25.656v18.2ZM2182.4-601.25l15.606-9.01L2215.5-579.8h-20.714ZM2160.929-590.7l.093-44.395,19.2,33.256Zm-40.538-3.578,22.57-13.031v26.062Zm-.8-19.015,39.89-23.169-.1,46.655-14.828,8.561v-28.826l-24.964,14.413Zm0-23.549h37.473l-37.473,21.766Zm0-19.8h51.784l25.837,44.992-15.609,9.012-20.67-35.8h-.248a.549.549,0,0,0-.044-.034.77.77,0,0,0-.773,0l-.056.033h-40.22Zm0-19.744h40.446l10.452,18.2h-50.9Zm0-23.856,38.868,22.26h-38.868Zm0-18.923,24.964,14.413v-28.826l14.783,8.535-.1,45.733-39.651-22.709Zm0-4.422-1.437.829v-26.063l1.437.829v-1.658l22.571,13.031-1.437.829h0l1.437.829-22.571,13.031Zm-1.6,2.763h0l-.32.553-1.117,1.935,1.436-.829v16.232l-15.556-8.909,14.12-8.152v1.659l1.595-2.763.271-.468Zm-37.1,105.4,12.367-21.421-.644-1.116h0l.645,1.116H2118v22.692l-17.4,10.105Zm-19.824,34.336,19.026-32.955,18.912,10.919Zm-23.745,1.279,25.446-44.236,15.944,9.205L2058.491-579.8Zm-.89,0Zm-.445-.774L2025.585-598.7l20.269-35.107,15.583,9ZM1983.843-598h40.363l10.452,18.2h-50.815Zm0-23.478,38.209,21.883h-38.209Zm0-19.3,24.964,14.413V-655.2l15.044,8.686-.1,46.108-39.911-22.858Zm-1.436-29.655,1.436.829v-1.659l22.571,13.031-1.437.829,1.437.829-22.571,13.031v-1.659l-1.411,2.443.293-.508,1.117-1.935-1.436.829Zm1.436-155.921-1.117-1.935-.319-.553-1.6-2.763v1.658l-14.421-8.326,15.857-9.21v16.707l-1.436-.829,1.116,1.935.32.553,1.6,2.763v-1.659l22.571,13.031-1.437.829,1.437.829L1983.843-800.3v-1.659l-1.436.829v-26.062Zm-1.472,183.7-.123.213h0l-.32.553-1.116,1.935,1.436-.829v16.61l-15.885-9.1,14.448-8.341v1.659ZM1945.777-579.8l-17.933-31.229,15.92-9.191L1956.592-598l.921-1.6-12.367-21.421,19.672-11.358,17.43,9.982v22.8h-24.735l-.921,1.6h25.656v18.2ZM1910.9-601.25l15.606-9.01L1944-579.8h-20.714ZM1889.43-590.7l.093-44.395,19.2,33.256Zm-17.969,9.453-22.57-13.031,22.57-13.031Z" transform="translate(-1848.093 1049.283)"/></g></g><g transform="translate(-762.093 2585.283)"><rect class="a" width="543" height="470.252" transform="translate(1848.093 -1049.283)"/><g transform="translate(1848.093 -1049.283)"><path class="b" d="M1870.664-579.861l-1.437.829h6.063l-1.436-.829,14.027-8.1-.019,8.928h1.542l.02-9.82,20.095-11.6,12.368,21.421H2060.63l-.008-.005,39.928-23.192,15.214,8.784L2090.8-579.031h3.191l22.571-13.031v13.031h1.595v-13.031l1.437.829-1.117-1.934-.319-.553-1.595-2.763v1.659l-14.421-8.326,15.857-9.21v16.707l-1.436-.829,1.117,1.935.32.553h0l1.6,2.763v-1.658l22.571,13.031-1.437.829h6.063l-1.436-.829,14.027-8.1-.019,8.928h1.542l.02-9.82,20.095-11.6,12.368,21.421H2332.13l-.008-.005,39.928-23.192,15.214,8.784L2362.3-579.031h3.191l22.57-13.031v13.031h1.6v-13.031l1.437.829-1.117-1.934-.319-.553-1.6-2.763v1.659l-14.421-8.326,15.857-9.21v16.707l-1.436-.829,1.117,1.935.319.553h0l1.6,2.763V-723.58l-1.437.829v-26.063l1.437.829V-880.331l-1.6,2.763h0l-.319.553-1.117,1.935,1.436-.829v16.232l-15.556-8.909,14.119-8.152v1.659l1.6-2.763.319-.553,1.117-1.934-1.437.829v-26.062l1.437.829v-132.346l-1.437.829v-13.031h-1.6v13.031l-22.57-13.031H2362.3l24.964,14.413-14.924,8.616-40.211-23.029H2193.388l-12.368,21.421-20.136-11.625.021-9.8h-1.542l-.019,8.906-13.99-8.077,1.436-.829h-6.063l1.437.829-22.571,13.031v-1.658l-1.437.829v-13.031h-1.595v13.031l-22.571-13.031H2090.8l24.964,14.413-14.923,8.616-40.211-23.029h-2.583l20.67,35.8-15.917,9.189-25.393-44.22h20.64v-.771H1921.888l-12.368,21.421-20.136-11.625.021-9.8h-1.542l-.019,8.906-13.99-8.077,1.436-.829h-6.063l1.437.829-22.571,13.031v2.763l24.964,14.413v-28.826l14.783,8.535-.1,45.733-39.651-22.709v1.777l38.868,22.26h-38.868v1.6h40.447l10.452,18.2h-50.9v1.542h51.785l25.836,44.991-15.609,9.012-20.67-35.8h-.247c-.016-.011-.028-.025-.044-.034a.772.772,0,0,0-.773,0l-.056.033h-40.22v1.6h37.473l-37.473,21.766v1.784l39.89-23.17-.1,46.655-14.828,8.561v-28.826l-24.964,14.413v2.763l22.571,13.031-1.437.829,1.437.829-22.571,13.031v2.763l24.964,14.413v-28.826l14.783,8.535-.1,45.733-39.651-22.709v1.777l38.868,22.26h-38.868v1.6h40.447l10.452,18.2h-50.9v1.542h51.785l25.836,44.991-15.609,9.013-20.67-35.8h-.247c-.016-.011-.028-.025-.044-.034a.771.771,0,0,0-.773,0l-.056.033h-40.22v1.6h37.473l-37.473,21.766v1.784l39.89-23.169-.1,46.655-14.828,8.561v-28.826l-24.964,14.413v2.763l22.571,13.031-1.437.829h0l1.437.829-22.571,13.031v2.763l24.964,14.413v-28.826l14.783,8.535-.1,45.733-39.651-22.709v1.777l38.868,22.261h-38.868v1.6h40.447l10.452,18.2h-50.9v1.542h51.785l25.836,44.991-15.609,9.012-20.67-35.8h-.248c-.015-.011-.028-.024-.044-.034a.77.77,0,0,0-.773,0l-.056.033h-40.22v1.6h37.473l-37.473,21.766v1.784l39.89-23.17-.1,46.655-14.828,8.561v-28.826l-24.964,14.413v2.763Zm.8-158.132-22.57-13.031,22.57-13.031Zm0,30.484-22.57-13.031,22.57-13.031Zm16.42-37.2-.038,17.834-13.99-8.077,1.436-.829h0l-1.436-.829Zm-16.42-150.034-22.57-13.031,22.57-13.031Zm0,30.484-22.57-13.031,22.57-13.031Zm16.42-37.2-.038,17.834-13.99-8.077,1.436-.829-1.436-.829Zm-16.42-119.55-22.57-13.031,22.57-13.031Zm30.195,364.374h21.085l20.225,35.031-15.917,9.19Zm79.156-18.224,1.091,1.89-1.091-1.89v1.658l-13.836-7.988,15.273-8.871v16.029Zm-24.22-79.9h25.656v18.2h-36.471l-17.933-31.229,15.92-9.191,12.828,22.219.921-1.6-12.367-21.421,20-11.548,17.1,9.794v23.175h-24.735Zm24.22-41.949,1.436-.829V-781.3l-15.556-8.909,14.12-8.152v1.659l1.436-2.488-.32.553Zm-35.483-94.283,10.594,18.449.118-.067-12.277,21.264-15.923-9.193Zm-18.823,29.682-15.6-9.009,12.383-21.448h20.71Zm17.842,12.143,18.912,10.919-37.938,22.036Zm20.452,11.808,15.214,8.784-24.964,14.413,24.964,14.413-14.924,8.616-40.218-23.034Zm-1.255,47.117-19.2,11.083L1925.3-812.137Zm17.267-36.952v26.063l-22.571-13.031Zm-35.483,92.952,10.594,18.449.118-.067-12.277,21.264-15.923-9.193Zm-18.823,29.682-15.6-9.009,12.383-21.448h20.71Zm17.842,12.143,19.5,11.257-39.112,22.718Zm37.9-42.6v18.2h-25.133l-10.453-18.2Zm0,19.8v23.37l-16.813,9.766-20.29-11.714,12.367-21.421-.644-1.116h0l.645,1.116Zm-1.436,70.839-22.571-13.031,22.571-13.031Zm-.8,1.382-15.252,8.806-39.63-22.7,40.253-23.38,14.629,8.446-24.964,14.413Zm-16.8,9.7L1944.348-622.4l-18.717-32.42Zm-61.564-24.882,25.394-44.222,15.92,9.191-20.225,35.031Zm-11.775-18.97,20.227-35.035,15.606,9.011-25.388,44.213Zm-.5-47,19.342,11.167-19.436,33.664Zm19.342-34.438-19.293,11.139.093-44.395Zm13.166,22.8-12.368,21.421-20.136-11.625.041-19.615,20.095-11.6Zm4.62-31.229L1944-736.553h-20.714L1910.9-758Zm-24.852-46.375h21.085l20.225,35.031-15.917,9.19Zm0-1.542,25.395-44.222,15.919,9.191-20.225,35.031Zm-11.775-18.97,20.227-35.034,15.606,9.011-25.388,44.213Zm-.5-47,19.342,11.167-19.436,33.664Zm19.342-34.438L1889.43-904.2l.093-44.395Zm13.166,22.8-12.368,21.421-20.136-11.625.041-19.615,20.095-11.6Zm4.62-31.229L1944-893.3h-20.714L1910.9-914.751Zm-24.852-46.375h21.084l20.225,35.031-15.917,9.19Zm78.357,13.642-14.924,8.616-40.218-23.034L1964.8-994.1l15.214,8.784-24.964,14.413Zm-21.773-14.413,22.571-13.031v26.063Zm-32.92-2.049,19.027-32.955,18.912,10.919Zm38.223,25.971-19.2,11.083L1925.3-968.888Zm-61.9-24.693,25.279-44.292,16.041,9.261-20.225,35.031Zm7.077-54.8-19.436,33.664.094-44.831Zm1.382.8,15.485,8.94-25.271,44.277-10.441-18.183Zm33.617-22.829-17.341,30.384-15.478-8.936,12.383-21.448Zm.888,0Zm.446.775,10.77,18.755-12.061,20.89-16.048-9.265Zm37.193,17.426H1956.84l-10.452-18.2h35.86Zm0,24.288-17.4,10.105-19.7-11.377,12.367-21.421-.437-.756h0l.437.756h24.735Zm-1.436,17.662,1.116,1.934.32.553-1.436-2.488v1.658l-14.421-8.326,15.857-9.21v16.707Zm1.436,50.309-15.556-8.909,14.12-8.152v1.659l1.436-2.488-.32.553-1.116,1.935,1.436-.829Zm0,44.748h-36.471l-17.933-31.229,15.92-9.191,12.828,22.219.921-1.6-12.367-21.421,20-11.548,17.1,9.794V-913.1h-24.735l-.921,1.6h25.656Zm0,19.744h-25.133l-10.452-18.2h35.585Zm0,24.288-17.4,10.105-19.7-11.377,12.367-21.421-.644-1.116h0l.645,1.116h24.735Zm1.6,175.241v-16.956l40.15-23.321-.1,45.977-15.09,8.712v-28.826Zm23.368-11.649v26.063l-22.57-13.031Zm0,30.484v26.063l-22.57-13.031Zm3.829-2.211-1.437-.829,14.288-8.25-.038,18.136-14.251-8.227Zm-27.2-35.364v-22.444h38.64Zm0-24.039v-18.2h51.785l25.836,44.992-15.609,9.012-20.67-35.8Zm108.5,40.429H2118v18.2h-36.471l-17.933-31.229,15.92-9.191,12.828,22.218.921-1.6L2080.9-699.4l20-11.547,17.1,9.794v23.174h-24.735Zm24.22-76.855,1.117,1.935.32.553h0l.312.54-.153-.265-1.595-2.763v1.659L2102.14-759.9l15.857-9.21v16.707Zm-24.22-79.9H2118v18.2h-36.471l-17.933-31.229,15.92-9.191,12.828,22.218.921-1.6L2080.9-856.147l20-11.547L2118-857.9v23.174h-24.735Zm24.22-76.855,1.117,1.935.32.553h0l.277.479-.118-.2-1.595-2.763v1.659l-14.421-8.326,15.857-9.21v16.707Zm-71.291-82.343,12.368,21.421-12.368,21.421-20.136-11.625.041-19.615Zm-20.091,9.758.093-44.395,19.2,33.256Zm20.091,146.993,12.368,21.421-12.368,21.421-20.136-11.625.041-19.615Zm-20.091,9.758.093-44.395,19.2,33.256Zm12.226,90.81h21.085l20.225,35.031-15.917,9.19Zm42.342,76.833h-20.714l-12.383-21.448,15.606-9.011Zm-18.694-75.584,38.24,21.9-19.2,11.083Zm-23.652-2.791,25.394-44.222,15.92,9.191-20.225,35.031Zm43.676-76.058,10.594,18.449.118-.068-12.277,21.264-15.923-9.193Zm-18.823,29.681-15.6-9.009,12.383-21.448h20.71Zm17.842,12.143,18.912,10.919-37.938,22.036Zm-44.025,33.453-10.445-18.189,20.227-35.034,15.606,9.011Zm-11.035-20.357.094-44.831,19.342,11.167Zm21.615-78.685,15.606-9.011,17.49,30.458h-20.714Zm-9.246-55.386h21.085l20.225,35.031-15.917,9.19Zm23.648,1.249,38.24,21.9-19.2,11.083Zm-2.564-2.792H2037.41l25.389-44.221,15.917,9.19Zm21.607-34.233,18.912,10.919-37.938,22.036Zm-44.021,33.459-10.449-18.2,20.227-35.034,15.609,9.012Zm-11.039-20.363.094-44.831,19.342,11.167Zm34-55.7h20.71l-17.487,30.457-15.606-9.01Zm22.044.774,10.594,18.449.118-.068-12.277,21.264-15.921-9.192Zm1.334-.774H2118v18.2h-25.133ZM2118-950.34v22.693l-17.4,10.1L2080.9-928.919l12.367-21.421-.644-1.116h0l.645,1.116Zm-1.436,70.838-22.571-13.031,22.571-13.031Zm-.8,1.382L2100.84-869.5l-40.219-23.034,39.928-23.192,15.214,8.784L2090.8-892.532ZM2118-813.386v18.2h-25.133l-10.452-18.2Zm0,19.8V-770.9l-17.4,10.105L2080.9-772.168l12.367-21.421-.644-1.116h0l.645,1.116Zm-1.436,70.838-22.571-13.031,22.571-13.031Zm-.8,1.382-14.923,8.616-40.219-23.034,39.928-23.192,15.214,8.784L2090.8-735.782Zm-35.129,64.733h0Zm37.364,0v18.2h-25.133l-10.452-18.2Zm-26.207,19.156-12.277,21.264-15.946-9.206,17.511-30.44,10.594,18.45Zm-29.559,11.287-15.581-9,12.383-21.448h20.71Zm-16.962-9.793L2025.4-647.461l.042-19.916,19.833-11.451,12.368,21.421Zm-19.83-33.235.092-43.794,18.94,32.805Zm19.032,34.617-19.174,33.21.092-44.227Zm-60.629-101.949v-18.2h40.447l10.452,18.2Zm27.2-77.6-1.437-.829,14.028-8.1-.038,17.834-13.99-8.077Zm-27.2,57.807v-22.261l38.869,22.261Zm0-24.038v-17.145l24.964,14.413v-28.826l14.783,8.535-.1,45.732Zm.8-18.527,22.57-13.031v26.063Zm-.8-31.866v-17.634l39.89-23.169-.1,46.655-14.828,8.561v-28.826Zm23.368-11.649v26.063l-22.57-13.031Zm-23.368-7.768v-21.766h37.473Zm0-23.362v-18.2h51.785l25.836,44.992-15.609,9.012-20.67-35.8h-.248c-.015-.01-.028-.024-.044-.034a.771.771,0,0,0-.773,0l-.056.032Zm0-19.744v-18.2h40.447l10.452,18.2Zm39.89-135.031-.1,46.655-14.828,8.561v-28.826l-24.964,14.413v-17.634Zm-39.89,21.386v-21.766h37.474Zm23.368,7.768v26.063l-22.57-13.031Zm0,30.484v26.063l-22.57-13.031Zm3.829-2.211h0l-1.437-.829,14.028-8.1L2023.594-962l-13.99-8.077,1.437-.829Zm-27.2,57.807v-22.261l38.868,22.261Zm0-24.038v-17.145l24.964,14.413V-968.7l14.783,8.535-.1,45.732Zm0-19.908v-1.659l-1.436.829v-26.062l1.436.829v-1.659l22.571,13.031-1.437.829h0l1.437.829Zm77.621-46.473-15.609,9.012-20.67-35.8h-.248c-.015-.01-.028-.024-.044-.034a.771.771,0,0,0-.773,0l-.056.032h-40.22v-18.2h51.785Zm18.284,31.841h-20.714l-12.383-21.448,15.606-9.011Zm19.546-53.683-19.2,11.083-19.043-32.984Zm1.6.917,17.1,9.794v23.174h-24.735l-.921,1.6H2118v18.2h-36.471l-17.933-31.229,15.92-9.191,12.828,22.219.921-1.6L2080.9-1012.9Zm17.531-10.617-.429.743-.32.553-1.117,1.935,1.436-.829v16.232l-15.557-8.909,14.12-8.152v1.659l1.595-2.763Zm1.166,130.326v-1.658l22.571,13.031-1.437.829,1.437.829-22.571,13.031v-1.658l-1.6,2.763h0l-.32.553-1.117,1.935,1.436-.829v16.232l-15.556-8.909,14.12-8.152v1.659l1.595-2.763.319-.553,1.117-1.934-1.437.829v-26.062Zm0,152.329V-770.04l39.89-23.169-.1,46.655-14.828,8.561v-28.826Zm23.368-11.649v26.062l-22.57-13.031Zm0,30.484v26.062l-22.57-13.031Zm3.829-2.211h0l-1.436-.829,14.027-8.1-.037,17.834-13.99-8.077,1.436-.829Zm-27.2-36.041v-21.766h37.473Zm0-23.361v-18.2h51.785l25.836,44.991-15.609,9.013-20.67-35.8h-.247c-.016-.011-.028-.025-.044-.034a.771.771,0,0,0-.773,0l-.056.033ZM2252.312-674.86l1.091,1.89-1.091-1.89v1.658l-14.421-8.326,15.857-9.211v16.707Zm3.031.829v-17.634l39.89-23.169-.1,46.655-14.828,8.561v-28.826Zm23.368-11.649v26.063l-22.57-13.031Zm0,30.484v26.063l-22.57-13.031Zm3.829-2.211-1.436-.829,14.027-8.1-.037,17.834-13.99-8.077Zm-27.2-36.041v-21.766h37.473Zm0-23.361v-18.2h51.785l25.836,44.992-15.609,9.012-20.67-35.8h-.248c-.015-.01-.028-.024-.044-.034a.771.771,0,0,0-.773,0l-.057.033Zm108.5,40.429H2389.5v18.2h-36.47l-17.933-31.229,15.92-9.191,12.828,22.218.921-1.6L2352.4-699.4l20-11.547,17.1,9.794v23.174h-24.735Zm23.422-44.989-14.924,8.616-40.219-23.034,39.928-23.192,15.214,8.784L2362.3-735.782Zm-21.773-14.413,22.57-13.031v26.062Zm-48.72-256.547,12.367,21.421-12.367,21.421-20.136-11.625.041-19.615Zm-20.091,9.758.093-44.4,19.2,33.256Zm-1.446-45.763-.1,46.655-14.828,8.561v-28.826l-24.964,14.413v-17.634Zm-39.89,21.386v-21.766h37.473Zm0,69.81v-17.146l24.964,14.413V-968.7l14.783,8.535-.1,45.732Zm38.868,24.038h-38.868v-22.26Zm-11.67-57.807h0l-1.436-.829,14.027-8.1L2295.094-962l-13.99-8.077,1.436-.829Zm-26.4,15.242,22.57-13.031v26.063Zm22.57-43.515v26.063l-22.57-13.031Zm17.078,87.676,10.452,18.2h-50.9v-18.2Zm-40.447,80.724v-17.634l39.89-23.169-.1,46.655-14.828,8.561v-28.826Zm23.368-11.649v26.063l-22.57-13.031Zm0,30.484v26.063l-22.57-13.031Zm3.829-2.211-1.436-.829,14.027-8.1-.037,17.834-13.99-8.077Zm-27.2-36.041v-21.766h37.473Zm0-23.362v-18.2h51.785l25.836,44.992-15.609,9.012-20.67-35.8h-.248c-.015-.01-.028-.024-.044-.034a.771.771,0,0,0-.773,0l-.056.032Zm52.232,136.232-10.448-18.2,20.227-35.034,15.609,9.012Zm.445.774h0Zm.885,1.542h21.085l20.225,35.031-15.917,9.19Zm42.342,76.833h-20.714l-12.383-21.448,15.606-9.011Zm-18.694-75.584,38.24,21.9-19.2,11.083ZM2316.77-835.579l12.367,21.421-12.367,21.421-20.136-11.625.041-19.615Zm-20.091,9.758.093-44.4,19.2,33.256Zm33.855,12.435h20.711l-17.487,30.458-15.606-9.01Zm3.765,32.612,15.917,9.19-20.225,35.031H2308.91Zm-37.762,23.083.094-44.831,19.342,11.167ZM2329.991-893.3H2308.91l25.389-44.221,15.917,9.19Zm21.607-34.233,18.912,10.919-37.939,22.036Zm-17.84-12.142-15.606-9.01,12.383-21.447h20.711Zm-26.182,45.6-10.449-18.2,20.227-35.034,15.609,9.012Zm.445.774Zm-11.484-21.138.094-44.831,19.342,11.167Zm21.615-78.685,15.606-9.011,17.49,30.458h-20.714Zm34.427,23.764,10.594,18.449.118-.068-12.277,21.264-15.92-9.192Zm1.334-.774H2389.5v18.2h-25.133Zm35.584,19.8v22.693l-17.4,10.1L2352.4-928.919l12.367-21.421-.644-1.116h0l.644,1.116Zm-2.234,43.394L2363.635-893.3h-30.194l38.609-22.425Zm-16.469,38.334-19.2,11.083-19.043-32.984Zm-20.578,11.881-15.917,9.19-25.393-44.22h21.085Zm1.032,41.8h-20.714l-12.383-21.448,15.606-9.011Zm1.331,2.317,10.594,18.449.118-.068-12.277,21.264-15.92-9.191Zm-.981,41.825,18.912,10.919-37.938,22.036Zm.536,114.151h0Zm37.363,0v18.2h-25.133l-10.452-18.2Zm-26.207,19.156-12.277,21.264-15.932-9.2,17.5-30.448,10.594,18.45Zm-29.544,11.3-15.595-9,12.383-21.448h20.71Zm-16.976-9.8-20.136-11.625.041-19.615,20.095-11.6,12.367,21.421h0Zm-20.091-33.085.093-44.4,19.2,33.256Zm19.293,34.466-19.436,33.664.094-44.831Zm-60.629-101.949v-18.2h40.447l10.452,18.2Zm0-19.8v-22.261l38.868,22.261Zm0-24.038v-17.146l24.964,14.413v-28.826l14.783,8.535-.1,45.732Zm0-19.909v-1.659l-1.6,2.763h0l-.32.553-1.116,1.935,1.436-.829V-781.3l-15.556-8.909,14.12-8.152v1.659l1.595-2.763.319-.553,1.117-1.935-1.437.829v-26.062l1.437.829-1.117-1.935-.319-.553-1.595-2.763v1.658l-14.421-8.326,15.857-9.211v16.707l-1.436-.829,1.116,1.935.32.553,1.6,2.763v-1.659l22.571,13.031-1.437.829,1.437.829Zm-27.251-111.209h25.656v18.2h-36.471l-17.933-31.229,15.92-9.191,12.828,22.219.921-1.6-12.367-21.421,20-11.548,17.1,9.795V-913.1h-24.735Zm23.422-44.989-14.924,8.616-40.218-23.034L2236.3-994.1l15.214,8.784-24.964,14.413Zm-21.773-14.413,22.571-13.031v26.063Zm-32.527,45.763-15.609,9.012-20.67-35.8h-.247c-.016-.011-.028-.025-.044-.034a.771.771,0,0,0-.773,0l-.056.033h-40.22v-18.2h51.785Zm-24.944-46.534Zm-52.677,62.523V-926.79l39.89-23.169-.1,46.655-14.828,8.561v-28.826Zm23.368-11.649v26.062l-22.57-13.031Zm0,30.484v26.062l-22.57-13.031Zm3.829-2.211-1.436-.829,14.027-8.1-.037,17.834-13.99-8.077Zm-27.2-36.041V-950.34h37.473ZM2181.02-757.2l12.368,21.421-12.368,21.421-20.136-11.625.041-19.615Zm-20.091,9.757.093-44.395,19.2,33.256Zm67.163-7.309h25.656v18.2h-36.471l-17.933-31.229,15.92-9.191,12.828,22.219.921-1.6-12.367-21.421,20-11.548,17.1,9.795v23.174h-24.735Zm23.422-44.989-14.924,8.616-40.218-23.034,39.928-23.192,15.214,8.784-24.964,14.413Zm-21.773-14.413,22.571-13.031v26.063Zm-12.912-76.83,10.594,18.449.118-.067-12.277,21.264-15.923-9.193Zm-.445-.774Zm-35.364-22.192,12.368,21.421-12.368,21.421-20.136-11.625.041-19.615Zm-20.091,9.757.093-44.395,19.2,33.256Zm33.855,12.435h20.71l-17.489,30.456-15.6-9.009Zm-12.383-22.99,15.606-9.01L2215.5-893.3h-20.714Zm33.446,65.59,18.912,10.919-37.938,22.036Zm19.2,58.926-19.2,11.083L2196.8-812.136Zm-18.66,55.225Zm.445.774,10.594,18.449.118-.068-12.277,21.265-15.92-9.192Zm36.919-.774v18.2h-25.133l-10.452-18.2Zm0,19.8v22.693l-17.4,10.105-19.7-11.377,12.367-21.421-.645-1.116h0l.645,1.116Zm-18.989,33.721-37.938,22.036,19.026-32.955Zm-40.519,23.315h-21.081l25.389-44.221,15.917,9.19Zm3.767-46.376-15.606-9.01,12.383-21.448h20.71ZM2182.4-758l15.606-9.01,17.49,30.458h-20.714Zm-9.246-55.386h21.085l20.225,35.031-15.917,9.19Zm0-1.542,25.394-44.222,15.92,9.191-20.225,35.031Zm-1.33-.781L2161.377-833.9l20.227-35.034,15.606,9.011Zm-11.035-20.357.094-44.831,19.342,11.167Zm12.369-134.07h21.085l20.225,35.031-15.917,9.19Zm23.648,1.249,38.24,21.9-19.2,11.083Zm-23.647-2.792,25.2-44.329,16.1,9.3-20.225,35.031Zm42.69-34.233,18.912,10.919-37.939,22.036Zm37.9,114.151v18.2h-25.133l-10.452-18.2Zm0,19.8v22.693l-17.4,10.105-19.7-11.377,12.367-21.421-.645-1.116h0l.645,1.116Zm-1.436,227.589-22.571-13.031,22.571-13.031Zm-.8,1.382-14.924,8.616-40.218-23.034L2236.3-680.6l15.214,8.784-24.964,14.413Zm-16.469,9.508-19.2,11.083L2196.8-655.386ZM2214.466-621.6l-15.917,9.19-25.393-44.221h21.085Zm-42.641-37.348-10.448-18.195,20.227-35.035,15.609,9.012Zm-11.039-20.363.094-44.831,19.342,11.167Zm-41.194-135.613v-18.2h40.446l10.452,18.2Zm0-19.8v-22.26l38.868,22.26Zm0-24.038v-17.146l24.964,14.413v-28.826l14.783,8.535-.1,45.733Zm0-154.973,38.868,22.26h-38.868Zm23.368-7.274-22.57-13.031,22.57-13.031Zm16.379-17.527-.1,45.733-39.651-22.709v-17.146l24.964,14.413v-28.826Zm.7,48.656,10.452,18.2h-50.9v-18.2Zm20.183-36.6-19.436,33.664.094-44.831Zm1.382.8,15.422,8.9-25.2,44.324-10.448-18.194Zm33.465-22.829-17.254,30.347-15.413-8.9,12.383-21.448Zm.887,0Zm.446.776,10.845,18.887-11.985,20.758-16.113-9.3Zm37.345,17.425h-25.56l-10.452-18.2h36.012Zm0,24.288-17.4,10.105-19.7-11.377,12.367-21.421-.475-.822h0l.475.822h24.735Zm0,20.15,1.6,2.763v-1.659l22.571,13.031-1.437.829h0l1.437.829-22.571,13.031v-1.659l-1.6,2.763h0l-.32.553-1.116,1.935,1.436-.829v16.232l-15.557-8.909,14.12-8.152v1.659l1.595-2.763.319-.553,1.117-1.935-1.437.829v-26.062l1.437.829-1.117-1.935-.319-.553-1.595-2.763v1.658l-14.421-8.326,15.857-9.211v16.707l-1.436-.829,1.116,1.934.32.553Zm53.38-62.639,25.836,44.992-15.609,9.012-20.67-35.8h-.248c-.015-.01-.028-.024-.044-.034a.771.771,0,0,0-.773,0l-.056.032h-40.22v-18.2Zm22.863,0,20.225,35.031-15.917,9.189-25.393-44.22Zm40.8,23.15-19.2,11.083-19.043-32.984Zm1.6.917,17.1,9.794v23.174h-24.735l-.921,1.6H2389.5v18.2h-36.47l-17.933-31.229,15.92-9.191,12.828,22.219.921-1.6L2352.4-1012.9Zm17.531-10.617-.429.743-.319.553-1.117,1.935,1.436-.829v16.232l-15.556-8.909,14.12-8.152v1.659l1.6-2.763Zm-1.865,125.075v1.659l-14.421-8.326,15.857-9.21v16.707l-1.436-.829,1.117,1.935.319.553h0l.277.479-.118-.2Zm0,30.484-22.57-13.031,22.57-13.031Zm-15.721,10-38.864-22.258h30.159l23.628,13.642Zm17.157,54.575h-36.47l-17.933-31.229,15.92-9.191,12.828,22.218.921-1.6L2352.4-856.147l20-11.547,17.1,9.794v23.174h-24.735l-.921,1.6H2389.5Zm0,19.744h-25.132l-10.452-18.2H2389.5Zm0,24.287-17.4,10.105L2352.4-772.168l12.367-21.421-.644-1.116h0l.644,1.116H2389.5Zm.159,20.425-1.6-2.763v1.659L2373.64-759.9l15.857-9.21v16.707l-1.436-.829,1.117,1.935.319.553h0l.313.54Zm-.159,29.655h0l-.319.553-1.117,1.935,1.436-.829v16.232l-15.556-8.909,14.119-8.152v1.659l1.6-2.763.27-.468Zm-37.1,105.4,12.367-21.421-.644-1.116h0l.644,1.116H2389.5v22.692l-17.4,10.105Zm-19.824,34.337,19.026-32.955,18.912,10.919Zm-23.7,1.278,25.414-44.227,15.929,9.2L2329.991-579.8Zm-1.331-.779-10.416-18.189,20.228-35.036,15.6,9.005ZM2255.343-598h40.445l10.423,18.2h-50.868Zm0-23.856,38.868,22.261h-38.868Zm0-18.923,24.964,14.413V-655.2l14.783,8.535-.1,45.732-39.651-22.709Zm0-4.422-1.6,2.763h0l-.32.553-1.116,1.935,1.436-.829v16.232l-15.556-8.909,14.12-8.152v1.659l1.595-2.763.319-.553,1.117-1.935-1.437.829v-26.063l1.437.829-1.117-1.935-.319-.553-.454-.787.3.512,1.6,2.763v-1.659l22.571,13.031-1.437.829,1.437.829-22.571,13.031Zm-38.066,65.4-17.933-31.229,15.92-9.191L2228.092-598l.921-1.6-12.367-21.421,20-11.548,17.1,9.794V-599.6h-24.735l-.921,1.6h25.656v18.2ZM2182.4-601.25l15.606-9.01L2215.5-579.8h-20.714ZM2160.929-590.7l.093-44.395,19.2,33.256Zm-40.538-3.578,22.57-13.031v26.062Zm-.8-19.015,39.89-23.169-.1,46.655-14.828,8.561v-28.826l-24.964,14.413Zm0-23.549h37.473l-37.473,21.766Zm0-19.8h51.784l25.837,44.992-15.609,9.012-20.67-35.8h-.248a.549.549,0,0,0-.044-.034.77.77,0,0,0-.773,0l-.056.033h-40.22Zm0-19.744h40.446l10.452,18.2h-50.9Zm0-23.856,38.868,22.26h-38.868Zm0-18.923,24.964,14.413v-28.826l14.783,8.535-.1,45.733-39.651-22.709Zm0-4.422-1.437.829v-26.063l1.437.829v-1.658l22.571,13.031-1.437.829h0l1.437.829-22.571,13.031Zm-1.6,2.763h0l-.32.553-1.117,1.935,1.436-.829v16.232l-15.556-8.909,14.12-8.152v1.659l1.595-2.763.271-.468Zm-37.1,105.4,12.367-21.421-.644-1.116h0l.645,1.116H2118v22.692l-17.4,10.105Zm-19.824,34.336,19.026-32.955,18.912,10.919Zm-23.745,1.279,25.446-44.236,15.944,9.205L2058.491-579.8Zm-.89,0Zm-.445-.774L2025.585-598.7l20.269-35.107,15.583,9ZM1983.843-598h40.363l10.452,18.2h-50.815Zm0-23.478,38.209,21.883h-38.209Zm0-19.3,24.964,14.413V-655.2l15.044,8.686-.1,46.108-39.911-22.858Zm-1.436-29.655,1.436.829v-1.659l22.571,13.031-1.437.829,1.437.829-22.571,13.031v-1.659l-1.411,2.443.293-.508,1.117-1.935-1.436.829Zm1.436-155.921-1.117-1.935-.319-.553-1.6-2.763v1.658l-14.421-8.326,15.857-9.21v16.707l-1.436-.829,1.116,1.935.32.553,1.6,2.763v-1.659l22.571,13.031-1.437.829,1.437.829L1983.843-800.3v-1.659l-1.436.829v-26.062Zm-1.472,183.7-.123.213h0l-.32.553-1.116,1.935,1.436-.829v16.61l-15.885-9.1,14.448-8.341v1.659ZM1945.777-579.8l-17.933-31.229,15.92-9.191L1956.592-598l.921-1.6-12.367-21.421,19.672-11.358,17.43,9.982v22.8h-24.735l-.921,1.6h25.656v18.2ZM1910.9-601.25l15.606-9.01L1944-579.8h-20.714ZM1889.43-590.7l.093-44.395,19.2,33.256Zm-17.969,9.453-22.57-13.031,22.57-13.031Z" transform="translate(-1848.093 1049.283)"/></g></g><g transform="translate(-1305.093 2585.283)"><rect class="a" width="543" height="470.252" transform="translate(1848.093 -1049.283)"/><g transform="translate(1848.093 -1049.283)"><path class="b" d="M1870.664-579.861l-1.437.829h6.063l-1.436-.829,14.027-8.1-.019,8.928h1.542l.02-9.82,20.095-11.6,12.368,21.421H2060.63l-.008-.005,39.928-23.192,15.214,8.784L2090.8-579.031h3.191l22.571-13.031v13.031h1.595v-13.031l1.437.829-1.117-1.934-.319-.553-1.595-2.763v1.659l-14.421-8.326,15.857-9.21v16.707l-1.436-.829,1.117,1.935.32.553h0l1.6,2.763v-1.658l22.571,13.031-1.437.829h6.063l-1.436-.829,14.027-8.1-.019,8.928h1.542l.02-9.82,20.095-11.6,12.368,21.421H2332.13l-.008-.005,39.928-23.192,15.214,8.784L2362.3-579.031h3.191l22.57-13.031v13.031h1.6v-13.031l1.437.829-1.117-1.934-.319-.553-1.6-2.763v1.659l-14.421-8.326,15.857-9.21v16.707l-1.436-.829,1.117,1.935.319.553h0l1.6,2.763V-723.58l-1.437.829v-26.063l1.437.829V-880.331l-1.6,2.763h0l-.319.553-1.117,1.935,1.436-.829v16.232l-15.556-8.909,14.119-8.152v1.659l1.6-2.763.319-.553,1.117-1.934-1.437.829v-26.062l1.437.829v-132.346l-1.437.829v-13.031h-1.6v13.031l-22.57-13.031H2362.3l24.964,14.413-14.924,8.616-40.211-23.029H2193.388l-12.368,21.421-20.136-11.625.021-9.8h-1.542l-.019,8.906-13.99-8.077,1.436-.829h-6.063l1.437.829-22.571,13.031v-1.658l-1.437.829v-13.031h-1.595v13.031l-22.571-13.031H2090.8l24.964,14.413-14.923,8.616-40.211-23.029h-2.583l20.67,35.8-15.917,9.189-25.393-44.22h20.64v-.771H1921.888l-12.368,21.421-20.136-11.625.021-9.8h-1.542l-.019,8.906-13.99-8.077,1.436-.829h-6.063l1.437.829-22.571,13.031v2.763l24.964,14.413v-28.826l14.783,8.535-.1,45.733-39.651-22.709v1.777l38.868,22.26h-38.868v1.6h40.447l10.452,18.2h-50.9v1.542h51.785l25.836,44.991-15.609,9.012-20.67-35.8h-.247c-.016-.011-.028-.025-.044-.034a.772.772,0,0,0-.773,0l-.056.033h-40.22v1.6h37.473l-37.473,21.766v1.784l39.89-23.17-.1,46.655-14.828,8.561v-28.826l-24.964,14.413v2.763l22.571,13.031-1.437.829,1.437.829-22.571,13.031v2.763l24.964,14.413v-28.826l14.783,8.535-.1,45.733-39.651-22.709v1.777l38.868,22.26h-38.868v1.6h40.447l10.452,18.2h-50.9v1.542h51.785l25.836,44.991-15.609,9.013-20.67-35.8h-.247c-.016-.011-.028-.025-.044-.034a.771.771,0,0,0-.773,0l-.056.033h-40.22v1.6h37.473l-37.473,21.766v1.784l39.89-23.169-.1,46.655-14.828,8.561v-28.826l-24.964,14.413v2.763l22.571,13.031-1.437.829h0l1.437.829-22.571,13.031v2.763l24.964,14.413v-28.826l14.783,8.535-.1,45.733-39.651-22.709v1.777l38.868,22.261h-38.868v1.6h40.447l10.452,18.2h-50.9v1.542h51.785l25.836,44.991-15.609,9.012-20.67-35.8h-.248c-.015-.011-.028-.024-.044-.034a.77.77,0,0,0-.773,0l-.056.033h-40.22v1.6h37.473l-37.473,21.766v1.784l39.89-23.17-.1,46.655-14.828,8.561v-28.826l-24.964,14.413v2.763Zm.8-158.132-22.57-13.031,22.57-13.031Zm0,30.484-22.57-13.031,22.57-13.031Zm16.42-37.2-.038,17.834-13.99-8.077,1.436-.829h0l-1.436-.829Zm-16.42-150.034-22.57-13.031,22.57-13.031Zm0,30.484-22.57-13.031,22.57-13.031Zm16.42-37.2-.038,17.834-13.99-8.077,1.436-.829-1.436-.829Zm-16.42-119.55-22.57-13.031,22.57-13.031Zm30.195,364.374h21.085l20.225,35.031-15.917,9.19Zm79.156-18.224,1.091,1.89-1.091-1.89v1.658l-13.836-7.988,15.273-8.871v16.029Zm-24.22-79.9h25.656v18.2h-36.471l-17.933-31.229,15.92-9.191,12.828,22.219.921-1.6-12.367-21.421,20-11.548,17.1,9.794v23.175h-24.735Zm24.22-41.949,1.436-.829V-781.3l-15.556-8.909,14.12-8.152v1.659l1.436-2.488-.32.553Zm-35.483-94.283,10.594,18.449.118-.067-12.277,21.264-15.923-9.193Zm-18.823,29.682-15.6-9.009,12.383-21.448h20.71Zm17.842,12.143,18.912,10.919-37.938,22.036Zm20.452,11.808,15.214,8.784-24.964,14.413,24.964,14.413-14.924,8.616-40.218-23.034Zm-1.255,47.117-19.2,11.083L1925.3-812.137Zm17.267-36.952v26.063l-22.571-13.031Zm-35.483,92.952,10.594,18.449.118-.067-12.277,21.264-15.923-9.193Zm-18.823,29.682-15.6-9.009,12.383-21.448h20.71Zm17.842,12.143,19.5,11.257-39.112,22.718Zm37.9-42.6v18.2h-25.133l-10.453-18.2Zm0,19.8v23.37l-16.813,9.766-20.29-11.714,12.367-21.421-.644-1.116h0l.645,1.116Zm-1.436,70.839-22.571-13.031,22.571-13.031Zm-.8,1.382-15.252,8.806-39.63-22.7,40.253-23.38,14.629,8.446-24.964,14.413Zm-16.8,9.7L1944.348-622.4l-18.717-32.42Zm-61.564-24.882,25.394-44.222,15.92,9.191-20.225,35.031Zm-11.775-18.97,20.227-35.035,15.606,9.011-25.388,44.213Zm-.5-47,19.342,11.167-19.436,33.664Zm19.342-34.438-19.293,11.139.093-44.395Zm13.166,22.8-12.368,21.421-20.136-11.625.041-19.615,20.095-11.6Zm4.62-31.229L1944-736.553h-20.714L1910.9-758Zm-24.852-46.375h21.085l20.225,35.031-15.917,9.19Zm0-1.542,25.395-44.222,15.919,9.191-20.225,35.031Zm-11.775-18.97,20.227-35.034,15.606,9.011-25.388,44.213Zm-.5-47,19.342,11.167-19.436,33.664Zm19.342-34.438L1889.43-904.2l.093-44.395Zm13.166,22.8-12.368,21.421-20.136-11.625.041-19.615,20.095-11.6Zm4.62-31.229L1944-893.3h-20.714L1910.9-914.751Zm-24.852-46.375h21.084l20.225,35.031-15.917,9.19Zm78.357,13.642-14.924,8.616-40.218-23.034L1964.8-994.1l15.214,8.784-24.964,14.413Zm-21.773-14.413,22.571-13.031v26.063Zm-32.92-2.049,19.027-32.955,18.912,10.919Zm38.223,25.971-19.2,11.083L1925.3-968.888Zm-61.9-24.693,25.279-44.292,16.041,9.261-20.225,35.031Zm7.077-54.8-19.436,33.664.094-44.831Zm1.382.8,15.485,8.94-25.271,44.277-10.441-18.183Zm33.617-22.829-17.341,30.384-15.478-8.936,12.383-21.448Zm.888,0Zm.446.775,10.77,18.755-12.061,20.89-16.048-9.265Zm37.193,17.426H1956.84l-10.452-18.2h35.86Zm0,24.288-17.4,10.105-19.7-11.377,12.367-21.421-.437-.756h0l.437.756h24.735Zm-1.436,17.662,1.116,1.934.32.553-1.436-2.488v1.658l-14.421-8.326,15.857-9.21v16.707Zm1.436,50.309-15.556-8.909,14.12-8.152v1.659l1.436-2.488-.32.553-1.116,1.935,1.436-.829Zm0,44.748h-36.471l-17.933-31.229,15.92-9.191,12.828,22.219.921-1.6-12.367-21.421,20-11.548,17.1,9.794V-913.1h-24.735l-.921,1.6h25.656Zm0,19.744h-25.133l-10.452-18.2h35.585Zm0,24.288-17.4,10.105-19.7-11.377,12.367-21.421-.644-1.116h0l.645,1.116h24.735Zm1.6,175.241v-16.956l40.15-23.321-.1,45.977-15.09,8.712v-28.826Zm23.368-11.649v26.063l-22.57-13.031Zm0,30.484v26.063l-22.57-13.031Zm3.829-2.211-1.437-.829,14.288-8.25-.038,18.136-14.251-8.227Zm-27.2-35.364v-22.444h38.64Zm0-24.039v-18.2h51.785l25.836,44.992-15.609,9.012-20.67-35.8Zm108.5,40.429H2118v18.2h-36.471l-17.933-31.229,15.92-9.191,12.828,22.218.921-1.6L2080.9-699.4l20-11.547,17.1,9.794v23.174h-24.735Zm24.22-76.855,1.117,1.935.32.553h0l.312.54-.153-.265-1.595-2.763v1.659L2102.14-759.9l15.857-9.21v16.707Zm-24.22-79.9H2118v18.2h-36.471l-17.933-31.229,15.92-9.191,12.828,22.218.921-1.6L2080.9-856.147l20-11.547L2118-857.9v23.174h-24.735Zm24.22-76.855,1.117,1.935.32.553h0l.277.479-.118-.2-1.595-2.763v1.659l-14.421-8.326,15.857-9.21v16.707Zm-71.291-82.343,12.368,21.421-12.368,21.421-20.136-11.625.041-19.615Zm-20.091,9.758.093-44.395,19.2,33.256Zm20.091,146.993,12.368,21.421-12.368,21.421-20.136-11.625.041-19.615Zm-20.091,9.758.093-44.395,19.2,33.256Zm12.226,90.81h21.085l20.225,35.031-15.917,9.19Zm42.342,76.833h-20.714l-12.383-21.448,15.606-9.011Zm-18.694-75.584,38.24,21.9-19.2,11.083Zm-23.652-2.791,25.394-44.222,15.92,9.191-20.225,35.031Zm43.676-76.058,10.594,18.449.118-.068-12.277,21.264-15.923-9.193Zm-18.823,29.681-15.6-9.009,12.383-21.448h20.71Zm17.842,12.143,18.912,10.919-37.938,22.036Zm-44.025,33.453-10.445-18.189,20.227-35.034,15.606,9.011Zm-11.035-20.357.094-44.831,19.342,11.167Zm21.615-78.685,15.606-9.011,17.49,30.458h-20.714Zm-9.246-55.386h21.085l20.225,35.031-15.917,9.19Zm23.648,1.249,38.24,21.9-19.2,11.083Zm-2.564-2.792H2037.41l25.389-44.221,15.917,9.19Zm21.607-34.233,18.912,10.919-37.938,22.036Zm-44.021,33.459-10.449-18.2,20.227-35.034,15.609,9.012Zm-11.039-20.363.094-44.831,19.342,11.167Zm34-55.7h20.71l-17.487,30.457-15.606-9.01Zm22.044.774,10.594,18.449.118-.068-12.277,21.264-15.921-9.192Zm1.334-.774H2118v18.2h-25.133ZM2118-950.34v22.693l-17.4,10.1L2080.9-928.919l12.367-21.421-.644-1.116h0l.645,1.116Zm-1.436,70.838-22.571-13.031,22.571-13.031Zm-.8,1.382L2100.84-869.5l-40.219-23.034,39.928-23.192,15.214,8.784L2090.8-892.532ZM2118-813.386v18.2h-25.133l-10.452-18.2Zm0,19.8V-770.9l-17.4,10.105L2080.9-772.168l12.367-21.421-.644-1.116h0l.645,1.116Zm-1.436,70.838-22.571-13.031,22.571-13.031Zm-.8,1.382-14.923,8.616-40.219-23.034,39.928-23.192,15.214,8.784L2090.8-735.782Zm-35.129,64.733h0Zm37.364,0v18.2h-25.133l-10.452-18.2Zm-26.207,19.156-12.277,21.264-15.946-9.206,17.511-30.44,10.594,18.45Zm-29.559,11.287-15.581-9,12.383-21.448h20.71Zm-16.962-9.793L2025.4-647.461l.042-19.916,19.833-11.451,12.368,21.421Zm-19.83-33.235.092-43.794,18.94,32.805Zm19.032,34.617-19.174,33.21.092-44.227Zm-60.629-101.949v-18.2h40.447l10.452,18.2Zm27.2-77.6-1.437-.829,14.028-8.1-.038,17.834-13.99-8.077Zm-27.2,57.807v-22.261l38.869,22.261Zm0-24.038v-17.145l24.964,14.413v-28.826l14.783,8.535-.1,45.732Zm.8-18.527,22.57-13.031v26.063Zm-.8-31.866v-17.634l39.89-23.169-.1,46.655-14.828,8.561v-28.826Zm23.368-11.649v26.063l-22.57-13.031Zm-23.368-7.768v-21.766h37.473Zm0-23.362v-18.2h51.785l25.836,44.992-15.609,9.012-20.67-35.8h-.248c-.015-.01-.028-.024-.044-.034a.771.771,0,0,0-.773,0l-.056.032Zm0-19.744v-18.2h40.447l10.452,18.2Zm39.89-135.031-.1,46.655-14.828,8.561v-28.826l-24.964,14.413v-17.634Zm-39.89,21.386v-21.766h37.474Zm23.368,7.768v26.063l-22.57-13.031Zm0,30.484v26.063l-22.57-13.031Zm3.829-2.211h0l-1.437-.829,14.028-8.1L2023.594-962l-13.99-8.077,1.437-.829Zm-27.2,57.807v-22.261l38.868,22.261Zm0-24.038v-17.145l24.964,14.413V-968.7l14.783,8.535-.1,45.732Zm0-19.908v-1.659l-1.436.829v-26.062l1.436.829v-1.659l22.571,13.031-1.437.829h0l1.437.829Zm77.621-46.473-15.609,9.012-20.67-35.8h-.248c-.015-.01-.028-.024-.044-.034a.771.771,0,0,0-.773,0l-.056.032h-40.22v-18.2h51.785Zm18.284,31.841h-20.714l-12.383-21.448,15.606-9.011Zm19.546-53.683-19.2,11.083-19.043-32.984Zm1.6.917,17.1,9.794v23.174h-24.735l-.921,1.6H2118v18.2h-36.471l-17.933-31.229,15.92-9.191,12.828,22.219.921-1.6L2080.9-1012.9Zm17.531-10.617-.429.743-.32.553-1.117,1.935,1.436-.829v16.232l-15.557-8.909,14.12-8.152v1.659l1.595-2.763Zm1.166,130.326v-1.658l22.571,13.031-1.437.829,1.437.829-22.571,13.031v-1.658l-1.6,2.763h0l-.32.553-1.117,1.935,1.436-.829v16.232l-15.556-8.909,14.12-8.152v1.659l1.595-2.763.319-.553,1.117-1.934-1.437.829v-26.062Zm0,152.329V-770.04l39.89-23.169-.1,46.655-14.828,8.561v-28.826Zm23.368-11.649v26.062l-22.57-13.031Zm0,30.484v26.062l-22.57-13.031Zm3.829-2.211h0l-1.436-.829,14.027-8.1-.037,17.834-13.99-8.077,1.436-.829Zm-27.2-36.041v-21.766h37.473Zm0-23.361v-18.2h51.785l25.836,44.991-15.609,9.013-20.67-35.8h-.247c-.016-.011-.028-.025-.044-.034a.771.771,0,0,0-.773,0l-.056.033ZM2252.312-674.86l1.091,1.89-1.091-1.89v1.658l-14.421-8.326,15.857-9.211v16.707Zm3.031.829v-17.634l39.89-23.169-.1,46.655-14.828,8.561v-28.826Zm23.368-11.649v26.063l-22.57-13.031Zm0,30.484v26.063l-22.57-13.031Zm3.829-2.211-1.436-.829,14.027-8.1-.037,17.834-13.99-8.077Zm-27.2-36.041v-21.766h37.473Zm0-23.361v-18.2h51.785l25.836,44.992-15.609,9.012-20.67-35.8h-.248c-.015-.01-.028-.024-.044-.034a.771.771,0,0,0-.773,0l-.057.033Zm108.5,40.429H2389.5v18.2h-36.47l-17.933-31.229,15.92-9.191,12.828,22.218.921-1.6L2352.4-699.4l20-11.547,17.1,9.794v23.174h-24.735Zm23.422-44.989-14.924,8.616-40.219-23.034,39.928-23.192,15.214,8.784L2362.3-735.782Zm-21.773-14.413,22.57-13.031v26.062Zm-48.72-256.547,12.367,21.421-12.367,21.421-20.136-11.625.041-19.615Zm-20.091,9.758.093-44.4,19.2,33.256Zm-1.446-45.763-.1,46.655-14.828,8.561v-28.826l-24.964,14.413v-17.634Zm-39.89,21.386v-21.766h37.473Zm0,69.81v-17.146l24.964,14.413V-968.7l14.783,8.535-.1,45.732Zm38.868,24.038h-38.868v-22.26Zm-11.67-57.807h0l-1.436-.829,14.027-8.1L2295.094-962l-13.99-8.077,1.436-.829Zm-26.4,15.242,22.57-13.031v26.063Zm22.57-43.515v26.063l-22.57-13.031Zm17.078,87.676,10.452,18.2h-50.9v-18.2Zm-40.447,80.724v-17.634l39.89-23.169-.1,46.655-14.828,8.561v-28.826Zm23.368-11.649v26.063l-22.57-13.031Zm0,30.484v26.063l-22.57-13.031Zm3.829-2.211-1.436-.829,14.027-8.1-.037,17.834-13.99-8.077Zm-27.2-36.041v-21.766h37.473Zm0-23.362v-18.2h51.785l25.836,44.992-15.609,9.012-20.67-35.8h-.248c-.015-.01-.028-.024-.044-.034a.771.771,0,0,0-.773,0l-.056.032Zm52.232,136.232-10.448-18.2,20.227-35.034,15.609,9.012Zm.445.774h0Zm.885,1.542h21.085l20.225,35.031-15.917,9.19Zm42.342,76.833h-20.714l-12.383-21.448,15.606-9.011Zm-18.694-75.584,38.24,21.9-19.2,11.083ZM2316.77-835.579l12.367,21.421-12.367,21.421-20.136-11.625.041-19.615Zm-20.091,9.758.093-44.4,19.2,33.256Zm33.855,12.435h20.711l-17.487,30.458-15.606-9.01Zm3.765,32.612,15.917,9.19-20.225,35.031H2308.91Zm-37.762,23.083.094-44.831,19.342,11.167ZM2329.991-893.3H2308.91l25.389-44.221,15.917,9.19Zm21.607-34.233,18.912,10.919-37.939,22.036Zm-17.84-12.142-15.606-9.01,12.383-21.447h20.711Zm-26.182,45.6-10.449-18.2,20.227-35.034,15.609,9.012Zm.445.774Zm-11.484-21.138.094-44.831,19.342,11.167Zm21.615-78.685,15.606-9.011,17.49,30.458h-20.714Zm34.427,23.764,10.594,18.449.118-.068-12.277,21.264-15.92-9.192Zm1.334-.774H2389.5v18.2h-25.133Zm35.584,19.8v22.693l-17.4,10.1L2352.4-928.919l12.367-21.421-.644-1.116h0l.644,1.116Zm-2.234,43.394L2363.635-893.3h-30.194l38.609-22.425Zm-16.469,38.334-19.2,11.083-19.043-32.984Zm-20.578,11.881-15.917,9.19-25.393-44.22h21.085Zm1.032,41.8h-20.714l-12.383-21.448,15.606-9.011Zm1.331,2.317,10.594,18.449.118-.068-12.277,21.264-15.92-9.191Zm-.981,41.825,18.912,10.919-37.938,22.036Zm.536,114.151h0Zm37.363,0v18.2h-25.133l-10.452-18.2Zm-26.207,19.156-12.277,21.264-15.932-9.2,17.5-30.448,10.594,18.45Zm-29.544,11.3-15.595-9,12.383-21.448h20.71Zm-16.976-9.8-20.136-11.625.041-19.615,20.095-11.6,12.367,21.421h0Zm-20.091-33.085.093-44.4,19.2,33.256Zm19.293,34.466-19.436,33.664.094-44.831Zm-60.629-101.949v-18.2h40.447l10.452,18.2Zm0-19.8v-22.261l38.868,22.261Zm0-24.038v-17.146l24.964,14.413v-28.826l14.783,8.535-.1,45.732Zm0-19.909v-1.659l-1.6,2.763h0l-.32.553-1.116,1.935,1.436-.829V-781.3l-15.556-8.909,14.12-8.152v1.659l1.595-2.763.319-.553,1.117-1.935-1.437.829v-26.062l1.437.829-1.117-1.935-.319-.553-1.595-2.763v1.658l-14.421-8.326,15.857-9.211v16.707l-1.436-.829,1.116,1.935.32.553,1.6,2.763v-1.659l22.571,13.031-1.437.829,1.437.829Zm-27.251-111.209h25.656v18.2h-36.471l-17.933-31.229,15.92-9.191,12.828,22.219.921-1.6-12.367-21.421,20-11.548,17.1,9.795V-913.1h-24.735Zm23.422-44.989-14.924,8.616-40.218-23.034L2236.3-994.1l15.214,8.784-24.964,14.413Zm-21.773-14.413,22.571-13.031v26.063Zm-32.527,45.763-15.609,9.012-20.67-35.8h-.247c-.016-.011-.028-.025-.044-.034a.771.771,0,0,0-.773,0l-.056.033h-40.22v-18.2h51.785Zm-24.944-46.534Zm-52.677,62.523V-926.79l39.89-23.169-.1,46.655-14.828,8.561v-28.826Zm23.368-11.649v26.062l-22.57-13.031Zm0,30.484v26.062l-22.57-13.031Zm3.829-2.211-1.436-.829,14.027-8.1-.037,17.834-13.99-8.077Zm-27.2-36.041V-950.34h37.473ZM2181.02-757.2l12.368,21.421-12.368,21.421-20.136-11.625.041-19.615Zm-20.091,9.757.093-44.395,19.2,33.256Zm67.163-7.309h25.656v18.2h-36.471l-17.933-31.229,15.92-9.191,12.828,22.219.921-1.6-12.367-21.421,20-11.548,17.1,9.795v23.174h-24.735Zm23.422-44.989-14.924,8.616-40.218-23.034,39.928-23.192,15.214,8.784-24.964,14.413Zm-21.773-14.413,22.571-13.031v26.063Zm-12.912-76.83,10.594,18.449.118-.067-12.277,21.264-15.923-9.193Zm-.445-.774Zm-35.364-22.192,12.368,21.421-12.368,21.421-20.136-11.625.041-19.615Zm-20.091,9.757.093-44.395,19.2,33.256Zm33.855,12.435h20.71l-17.489,30.456-15.6-9.009Zm-12.383-22.99,15.606-9.01L2215.5-893.3h-20.714Zm33.446,65.59,18.912,10.919-37.938,22.036Zm19.2,58.926-19.2,11.083L2196.8-812.136Zm-18.66,55.225Zm.445.774,10.594,18.449.118-.068-12.277,21.265-15.92-9.192Zm36.919-.774v18.2h-25.133l-10.452-18.2Zm0,19.8v22.693l-17.4,10.105-19.7-11.377,12.367-21.421-.645-1.116h0l.645,1.116Zm-18.989,33.721-37.938,22.036,19.026-32.955Zm-40.519,23.315h-21.081l25.389-44.221,15.917,9.19Zm3.767-46.376-15.606-9.01,12.383-21.448h20.71ZM2182.4-758l15.606-9.01,17.49,30.458h-20.714Zm-9.246-55.386h21.085l20.225,35.031-15.917,9.19Zm0-1.542,25.394-44.222,15.92,9.191-20.225,35.031Zm-1.33-.781L2161.377-833.9l20.227-35.034,15.606,9.011Zm-11.035-20.357.094-44.831,19.342,11.167Zm12.369-134.07h21.085l20.225,35.031-15.917,9.19Zm23.648,1.249,38.24,21.9-19.2,11.083Zm-23.647-2.792,25.2-44.329,16.1,9.3-20.225,35.031Zm42.69-34.233,18.912,10.919-37.939,22.036Zm37.9,114.151v18.2h-25.133l-10.452-18.2Zm0,19.8v22.693l-17.4,10.105-19.7-11.377,12.367-21.421-.645-1.116h0l.645,1.116Zm-1.436,227.589-22.571-13.031,22.571-13.031Zm-.8,1.382-14.924,8.616-40.218-23.034L2236.3-680.6l15.214,8.784-24.964,14.413Zm-16.469,9.508-19.2,11.083L2196.8-655.386ZM2214.466-621.6l-15.917,9.19-25.393-44.221h21.085Zm-42.641-37.348-10.448-18.195,20.227-35.035,15.609,9.012Zm-11.039-20.363.094-44.831,19.342,11.167Zm-41.194-135.613v-18.2h40.446l10.452,18.2Zm0-19.8v-22.26l38.868,22.26Zm0-24.038v-17.146l24.964,14.413v-28.826l14.783,8.535-.1,45.733Zm0-154.973,38.868,22.26h-38.868Zm23.368-7.274-22.57-13.031,22.57-13.031Zm16.379-17.527-.1,45.733-39.651-22.709v-17.146l24.964,14.413v-28.826Zm.7,48.656,10.452,18.2h-50.9v-18.2Zm20.183-36.6-19.436,33.664.094-44.831Zm1.382.8,15.422,8.9-25.2,44.324-10.448-18.194Zm33.465-22.829-17.254,30.347-15.413-8.9,12.383-21.448Zm.887,0Zm.446.776,10.845,18.887-11.985,20.758-16.113-9.3Zm37.345,17.425h-25.56l-10.452-18.2h36.012Zm0,24.288-17.4,10.105-19.7-11.377,12.367-21.421-.475-.822h0l.475.822h24.735Zm0,20.15,1.6,2.763v-1.659l22.571,13.031-1.437.829h0l1.437.829-22.571,13.031v-1.659l-1.6,2.763h0l-.32.553-1.116,1.935,1.436-.829v16.232l-15.557-8.909,14.12-8.152v1.659l1.595-2.763.319-.553,1.117-1.935-1.437.829v-26.062l1.437.829-1.117-1.935-.319-.553-1.595-2.763v1.658l-14.421-8.326,15.857-9.211v16.707l-1.436-.829,1.116,1.934.32.553Zm53.38-62.639,25.836,44.992-15.609,9.012-20.67-35.8h-.248c-.015-.01-.028-.024-.044-.034a.771.771,0,0,0-.773,0l-.056.032h-40.22v-18.2Zm22.863,0,20.225,35.031-15.917,9.189-25.393-44.22Zm40.8,23.15-19.2,11.083-19.043-32.984Zm1.6.917,17.1,9.794v23.174h-24.735l-.921,1.6H2389.5v18.2h-36.47l-17.933-31.229,15.92-9.191,12.828,22.219.921-1.6L2352.4-1012.9Zm17.531-10.617-.429.743-.319.553-1.117,1.935,1.436-.829v16.232l-15.556-8.909,14.12-8.152v1.659l1.6-2.763Zm-1.865,125.075v1.659l-14.421-8.326,15.857-9.21v16.707l-1.436-.829,1.117,1.935.319.553h0l.277.479-.118-.2Zm0,30.484-22.57-13.031,22.57-13.031Zm-15.721,10-38.864-22.258h30.159l23.628,13.642Zm17.157,54.575h-36.47l-17.933-31.229,15.92-9.191,12.828,22.218.921-1.6L2352.4-856.147l20-11.547,17.1,9.794v23.174h-24.735l-.921,1.6H2389.5Zm0,19.744h-25.132l-10.452-18.2H2389.5Zm0,24.287-17.4,10.105L2352.4-772.168l12.367-21.421-.644-1.116h0l.644,1.116H2389.5Zm.159,20.425-1.6-2.763v1.659L2373.64-759.9l15.857-9.21v16.707l-1.436-.829,1.117,1.935.319.553h0l.313.54Zm-.159,29.655h0l-.319.553-1.117,1.935,1.436-.829v16.232l-15.556-8.909,14.119-8.152v1.659l1.6-2.763.27-.468Zm-37.1,105.4,12.367-21.421-.644-1.116h0l.644,1.116H2389.5v22.692l-17.4,10.105Zm-19.824,34.337,19.026-32.955,18.912,10.919Zm-23.7,1.278,25.414-44.227,15.929,9.2L2329.991-579.8Zm-1.331-.779-10.416-18.189,20.228-35.036,15.6,9.005ZM2255.343-598h40.445l10.423,18.2h-50.868Zm0-23.856,38.868,22.261h-38.868Zm0-18.923,24.964,14.413V-655.2l14.783,8.535-.1,45.732-39.651-22.709Zm0-4.422-1.6,2.763h0l-.32.553-1.116,1.935,1.436-.829v16.232l-15.556-8.909,14.12-8.152v1.659l1.595-2.763.319-.553,1.117-1.935-1.437.829v-26.063l1.437.829-1.117-1.935-.319-.553-.454-.787.3.512,1.6,2.763v-1.659l22.571,13.031-1.437.829,1.437.829-22.571,13.031Zm-38.066,65.4-17.933-31.229,15.92-9.191L2228.092-598l.921-1.6-12.367-21.421,20-11.548,17.1,9.794V-599.6h-24.735l-.921,1.6h25.656v18.2ZM2182.4-601.25l15.606-9.01L2215.5-579.8h-20.714ZM2160.929-590.7l.093-44.395,19.2,33.256Zm-40.538-3.578,22.57-13.031v26.062Zm-.8-19.015,39.89-23.169-.1,46.655-14.828,8.561v-28.826l-24.964,14.413Zm0-23.549h37.473l-37.473,21.766Zm0-19.8h51.784l25.837,44.992-15.609,9.012-20.67-35.8h-.248a.549.549,0,0,0-.044-.034.77.77,0,0,0-.773,0l-.056.033h-40.22Zm0-19.744h40.446l10.452,18.2h-50.9Zm0-23.856,38.868,22.26h-38.868Zm0-18.923,24.964,14.413v-28.826l14.783,8.535-.1,45.733-39.651-22.709Zm0-4.422-1.437.829v-26.063l1.437.829v-1.658l22.571,13.031-1.437.829h0l1.437.829-22.571,13.031Zm-1.6,2.763h0l-.32.553-1.117,1.935,1.436-.829v16.232l-15.556-8.909,14.12-8.152v1.659l1.595-2.763.271-.468Zm-37.1,105.4,12.367-21.421-.644-1.116h0l.645,1.116H2118v22.692l-17.4,10.105Zm-19.824,34.336,19.026-32.955,18.912,10.919Zm-23.745,1.279,25.446-44.236,15.944,9.205L2058.491-579.8Zm-.89,0Zm-.445-.774L2025.585-598.7l20.269-35.107,15.583,9ZM1983.843-598h40.363l10.452,18.2h-50.815Zm0-23.478,38.209,21.883h-38.209Zm0-19.3,24.964,14.413V-655.2l15.044,8.686-.1,46.108-39.911-22.858Zm-1.436-29.655,1.436.829v-1.659l22.571,13.031-1.437.829,1.437.829-22.571,13.031v-1.659l-1.411,2.443.293-.508,1.117-1.935-1.436.829Zm1.436-155.921-1.117-1.935-.319-.553-1.6-2.763v1.658l-14.421-8.326,15.857-9.21v16.707l-1.436-.829,1.116,1.935.32.553,1.6,2.763v-1.659l22.571,13.031-1.437.829,1.437.829L1983.843-800.3v-1.659l-1.436.829v-26.062Zm-1.472,183.7-.123.213h0l-.32.553-1.116,1.935,1.436-.829v16.61l-15.885-9.1,14.448-8.341v1.659ZM1945.777-579.8l-17.933-31.229,15.92-9.191L1956.592-598l.921-1.6-12.367-21.421,19.672-11.358,17.43,9.982v22.8h-24.735l-.921,1.6h25.656v18.2ZM1910.9-601.25l15.606-9.01L1944-579.8h-20.714ZM1889.43-590.7l.093-44.395,19.2,33.256Zm-17.969,9.453-22.57-13.031,22.57-13.031Z" transform="translate(-1848.093 1049.283)"/></g></g></g></svg>