<svg id="Layer_1" data-name="Layer 1" xmlns="http://www.w3.org/2000/svg" viewBox="0 0 512 512"><defs><style>.cls-1{fill:#898989;}</style></defs><title>x-other</title><path class="cls-1" d="M256,512A256,256,0,0,1,75,75,256,256,0,1,1,437,437h0A254.31,254.31,0,0,1,256,512Zm0-500.62A244.62,244.62,0,0,0,83,429,244.61,244.61,0,0,0,429,429h0A244.62,244.62,0,0,0,256,11.38Z"/><path class="cls-1" d="M324.27,330a5.67,5.67,0,0,1-4-1.67L183.71,191.76a5.69,5.69,0,0,1,8-8L328.29,320.24a5.69,5.69,0,0,1-4,9.71Z"/><path class="cls-1" d="M187.73,330a5.69,5.69,0,0,1-4-9.71L320.24,183.71a5.69,5.69,0,1,1,8,8L191.76,328.29A5.67,5.67,0,0,1,187.73,330Z"/></svg>