<svg xmlns="http://www.w3.org/2000/svg" width="2085" height="601.888" viewBox="0 0 2085 601.888"><defs><style>.a{fill:rgba(0,0,0,0);}.b{fill:#91703f;}</style></defs><g transform="translate(0 -1536)"><g transform="translate(0 1536)"><rect class="a" width="695" height="601.887"/><g transform="translate(0 0)"><path class="b" d="M1876.982-448.457l-1.839,1.062h7.76l-1.838-1.062,17.954-10.366L1899-447.4h1.974l.026-12.569,25.72-14.849,15.83,27.417h177.579l-.01-.007,51.1-29.683,19.472,11.242L2158.74-447.4h4.084l28.889-16.679V-447.4h2.042v-16.679l1.839,1.061-1.43-2.476-.409-.708-2.042-3.537v2.123l-18.458-10.657,20.3-11.789v21.384l-1.838-1.062,1.429,2.476.409.708h0l2.042,3.536v-2.122l28.889,16.679-1.839,1.062h7.76l-1.838-1.062,17.953-10.366L2246.5-447.4h1.974l.026-12.569,25.72-14.849,15.83,27.417h177.579l-.01-.007,51.105-29.683,19.472,11.242L2506.24-447.4h4.084l28.888-16.679V-447.4h2.042v-16.679l1.839,1.061-1.43-2.476-.409-.708-2.042-3.537v2.123l-18.458-10.657,20.3-11.789v21.384l-1.838-1.062,1.429,2.476.409.708h0l2.042,3.536V-632.407l-1.839,1.062V-664.7l1.839,1.061V-833.036l-2.042,3.536h0l-.409.708-1.429,2.476,1.838-1.062V-806.6l-19.91-11.4,18.072-10.434v2.123l2.042-3.537.409-.708,1.43-2.476-1.839,1.061v-33.358l1.839,1.061v-169.394l-1.839,1.062v-16.679h-2.042v16.678l-28.888-16.678h-4.084l31.952,18.447-19.1,11.028-51.467-29.475H2290.045l-15.83,27.417-25.772-14.88.026-12.537H2246.5l-.024,11.4-17.906-10.338,1.838-1.061h-7.76l1.839,1.061-28.889,16.679v-2.123l-1.839,1.062v-16.679h-2.042v16.678l-28.889-16.678h-4.084l31.952,18.447-19.1,11.028-51.467-29.475h-3.307l26.456,45.824L2122.9-991.7l-32.5-56.6h26.417v-.987H1942.545l-15.83,27.417-25.772-14.88.027-12.537H1899l-.024,11.4-17.906-10.338,1.838-1.061h-7.76l1.839,1.061-28.889,16.679v3.537l31.952,18.448v-36.895l18.921,10.924L1898.843-977l-50.75-29.066v2.275l49.748,28.492h-49.748v2.042h51.769l13.377,23.3h-65.146v1.974h66.281l33.068,57.585-19.979,11.535-26.457-45.824h-.316c-.02-.014-.035-.031-.057-.044a.988.988,0,0,0-.989,0l-.072.042h-51.479v2.042h47.963l-47.963,27.859v2.283l51.057-29.656-.125,59.715-18.979,10.958v-36.895l-31.952,18.448v3.537l28.889,16.679-1.839,1.062,1.839,1.061-28.889,16.679v3.537l31.952,18.448v-36.895l18.921,10.924-.123,58.534-50.75-29.066v2.275l49.748,28.492h-49.748v2.042h51.769l13.378,23.3h-65.146v1.974h66.281l33.068,57.586-19.979,11.535-26.457-45.824h-.316c-.02-.014-.035-.032-.057-.044a.987.987,0,0,0-.989,0l-.072.042h-51.479v2.042h47.963l-47.963,27.859v2.283l51.057-29.655-.125,59.715-18.979,10.958V-687.75L1848.093-669.3v3.537l28.889,16.679-1.839,1.062h0l1.839,1.061-28.889,16.679v3.537l31.952,18.448V-645.2l18.921,10.924-.123,58.534-50.75-29.066v2.274l49.748,28.492h-49.748v2.042h51.769l13.378,23.3h-65.146v1.974h66.281l33.068,57.586L1927.463-477.6l-26.457-45.824h-.317c-.02-.014-.035-.031-.056-.043a.985.985,0,0,0-.989,0l-.072.042h-51.479v2.042h47.963l-47.963,27.859v2.283L1899.15-520.9l-.125,59.715-18.979,10.958V-487.12l-31.952,18.448v3.537Zm1.021-202.4-28.888-16.679L1878-684.212Zm0,39.017-28.888-16.678L1878-645.2Zm21.017-47.615-.048,22.827-17.906-10.338,1.838-1.061h0l-1.838-1.062ZM1878-851.484l-28.888-16.679L1878-884.842Zm0,39.017-28.888-16.678L1878-845.824Zm21.017-47.615-.048,22.826-17.906-10.338,1.838-1.061-1.838-1.062ZM1878-1013.1l-28.888-16.678L1878-1046.453Zm38.647,466.372h26.987l25.887,44.837-20.372,11.762Zm101.313-23.325,1.4,2.42-1.4-2.42v2.122l-17.709-10.224L2019.8-589.5v20.517Zm-31-102.26H2019.8v23.3h-46.68l-22.953-39.971,20.377-11.764,16.419,28.439,1.178-2.042-15.829-27.417,25.6-14.78,21.889,12.536v29.662h-31.659Zm31-53.692,1.838-1.062v20.776l-19.911-11.4,18.072-10.434V-726l1.838-3.185-.409.708Zm-45.416-120.675,13.56,23.614.151-.086-15.714,27.217-20.38-11.767Zm-24.092,37.991-19.972-11.531,15.849-27.451h26.508Zm22.837,15.543,24.206,13.975-48.559,28.2Zm26.177,15.114,19.473,11.242L1984.99-748.34l31.952,18.448-19.1,11.028-51.477-29.481Zm-1.606,60.307-24.571,14.186-24.374-42.217Zm22.1-47.3v33.358l-28.889-16.679Zm-45.416,118.972,13.56,23.614.151-.086L1970.545-595.3l-20.38-11.767Zm-24.092,37.991-19.972-11.53,15.849-27.451h26.508Zm22.837,15.543,24.955,14.408-50.061,29.077Zm48.51-54.525v23.3h-32.168l-13.379-23.3Zm0,25.338v29.912l-21.519,12.5-25.969-14.994,15.829-27.417-.825-1.429h0l.825,1.429Zm-1.838,90.668-28.889-16.679,28.889-16.679Zm-1.021,1.769-19.521,11.271-50.724-29.05,51.521-29.925,18.724,10.81L1984.99-547.71Zm-21.5,12.412-24.15,13.943L1947.335-544.4Zm-78.8-31.847,32.5-56.6,20.376,11.764L1943.636-548.7Zm-15.072-24.28,25.89-44.842,19.975,11.533-32.5,56.589Zm-.635-60.155,24.756,14.293-24.877,43.087Zm24.756-44.078L1901-662.954l.119-56.822Zm16.851,29.186-15.83,27.417-25.772-14.88.052-25.106,25.72-14.849ZM1948.458-688l22.386,38.984h-26.512l-15.849-27.451Zm-31.809-59.357h26.987l25.887,44.837-20.372,11.762Zm0-1.974,32.5-56.6,20.375,11.764-25.887,44.837Zm-15.072-24.28,25.89-44.842,19.975,11.533-32.5,56.589Zm-.635-60.155,24.756,14.293-24.877,43.087Zm24.756-44.078L1901-863.583l.119-56.822Zm16.851,29.186-15.83,27.417-25.772-14.88.052-25.106,25.72-14.849Zm5.913-39.971,22.386,38.984h-26.512l-15.849-27.451Zm-31.808-59.357h26.986l25.887,44.837-20.372,11.762Zm100.291,17.46-19.1,11.028-51.477-29.482,51.1-29.683,19.473,11.242-31.952,18.447Zm-27.868-18.448,28.889-16.679v33.358Zm-42.135-2.623,24.353-42.18L1995.5-979.8Zm48.923,33.241-24.57,14.185-24.374-42.217Zm-79.226-31.6,32.355-56.691,20.531,11.854-25.887,44.837Zm9.058-70.142-24.877,43.087.121-57.381Zm1.769,1.02,19.82,11.443-32.344,56.672-13.364-23.273Zm43.027-29.219-22.2,38.889-19.811-11.438,15.849-27.451Zm1.136,0Zm.57.992,13.785,24.005-15.437,26.738L1950-1008.42Zm47.6,22.3h-32.52l-13.378-23.3h45.9Zm0,31.087-22.268,12.934-25.221-14.561,15.829-27.417-.559-.968h0l.56.968H2019.8Zm-1.838,22.606,1.429,2.476.409.708-1.838-3.184v2.123L1999.5-979.841l20.3-11.788v21.383Zm1.838,64.391-19.911-11.4,18.072-10.434v2.123l1.838-3.185-.409.708-1.429,2.476,1.838-1.062Zm0,57.275h-46.68l-22.953-39.971,20.377-11.764,16.419,28.439,1.178-2.042L1972.313-902.4l25.6-14.78,21.889,12.536v29.662h-31.659l-1.179,2.042H2019.8Zm0,25.271h-32.168l-13.378-23.3H2019.8Zm0,31.087-22.268,12.934-25.221-14.561,15.829-27.417-.825-1.428h0l.825,1.429H2019.8Zm2.042,224.3v-21.7l51.389-29.849-.123,58.848-19.314,11.151v-36.895Zm29.909-14.91v33.358l-28.888-16.679Zm0,39.017v33.358L2022.864-528.2Zm4.9-2.83-1.839-1.062,18.288-10.559-.048,23.212-18.24-10.53Zm-34.811-45.263V-621.7H2071.3Zm0-30.768v-23.3h66.281l33.068,57.586-19.979,11.535-26.457-45.824Zm138.87,51.747h32.838v23.3h-46.68l-22.953-39.971,20.377-11.764,16.419,28.438,1.178-2.042-15.829-27.417,25.6-14.78,21.889,12.536v29.661h-31.659Zm31-98.369,1.429,2.476.409.708h0l.4.691-.2-.339-2.042-3.537v2.123L2173.255-678.9l20.3-11.788V-669.3Zm-31-102.26h32.838v23.3h-46.68L2123.918-789.3l20.377-11.764,16.419,28.438,1.178-2.042-15.829-27.417,25.6-14.78,21.889,12.536v29.661h-31.659Zm31-98.369,1.429,2.476.409.708h0l.354.613-.151-.261-2.042-3.537v2.123l-18.458-10.657,20.3-11.789v21.384Zm-91.248-105.394,15.83,27.417-15.83,27.417-25.772-14.88.052-25.106ZM2074.751-963.9l.119-56.822,24.574,42.565Zm25.714,188.14,15.83,27.417-15.83,27.417-25.772-14.88.052-25.106Zm-25.714,12.489.119-56.822,24.574,42.565Zm15.649,116.23h26.987l25.887,44.837L2122.9-590.439Zm54.195,98.341h-26.512l-15.849-27.451,19.975-11.533Zm-23.927-96.742,48.945,28.032-24.571,14.186Zm-30.273-3.573,32.5-56.6,20.376,11.764-25.887,44.837Zm55.9-97.349,13.56,23.614.151-.087-15.714,27.217-20.38-11.766Zm-24.092,37.99L2102.233-719.9l15.849-27.451h26.508Zm22.836,15.543,24.207,13.975-48.559,28.2Zm-56.349,42.817-13.369-23.28,25.889-44.841,19.975,11.533Zm-14.125-26.055.12-57.38,24.756,14.293Zm27.665-100.711,19.975-11.533,22.386,38.984h-26.512ZM2090.4-847.667h26.987l25.887,44.837L2122.9-791.068Zm30.268,1.6,48.944,28.031-24.571,14.186Zm-3.281-3.573H2090.4l32.5-56.6,20.373,11.763Zm27.655-43.816,24.207,13.976-48.559,28.2ZM2088.7-850.632l-13.374-23.289,25.889-44.841,19.978,11.535ZM2074.568-876.7l.12-57.381,24.756,14.293Zm43.514-71.286h26.508L2122.208-909l-19.974-11.532Zm28.215.991,13.56,23.614.151-.087-15.714,27.217-20.377-11.765Zm1.707-.991h45.547v23.3h-32.169Zm45.547,25.338V-893.6l-22.268,12.933-25.221-14.561,15.829-27.417-.824-1.429h0l.825,1.429Zm-1.838,90.667-28.889-16.678,28.889-16.679Zm-1.021,1.769-19.1,11.028-51.477-29.482,51.1-29.684,19.472,11.242-31.952,18.448Zm2.86,82.854v23.3h-32.169L2148-747.353Zm0,25.339v29.044l-22.268,12.934L2146.063-694.6l15.829-27.417-.824-1.429h0l.825,1.429Zm-1.838,90.668-28.889-16.678,28.889-16.679Zm-1.021,1.769-19.1,11.028-51.477-29.481,51.1-29.683,19.472,11.242-31.952,18.448Zm-44.963,82.854h0Zm47.823,0v23.3h-32.169L2148-546.724Zm-33.543,24.519-15.714,27.217-20.41-11.783,22.412-38.961,13.56,23.614Zm-37.833,14.446-19.942-11.513,15.849-27.452h26.507Zm-21.71-12.534-25.438-14.687.053-25.492,25.385-14.656,15.83,27.417Zm-25.381-42.539.117-56.053,24.242,41.989Zm24.359,44.307L2074.9-476.018l.118-56.607Zm-77.6-130.487v-23.3h51.769l13.378,23.3Zm34.811-99.328-1.839-1.062,17.954-10.365-.049,22.827-17.906-10.338Zm-34.811,73.989v-28.492l49.749,28.492Zm0-30.767v-21.945l31.952,18.447V-745.51l18.921,10.925-.123,58.534Zm1.021-23.713,28.888-16.679v33.358Zm-1.021-40.786v-22.57l51.056-29.655-.125,59.715-18.979,10.958v-36.895Zm29.909-14.91v33.358l-28.888-16.679Zm-29.909-9.942v-27.859h47.963Zm0-29.9v-23.3h66.281l33.068,57.586-19.979,11.535-26.457-45.824h-.317c-.02-.013-.036-.031-.056-.043a.987.987,0,0,0-.989,0l-.072.042Zm0-25.271v-23.3h51.769l13.378,23.3Zm51.056-172.829-.125,59.715L2053.795-951.8v-36.895l-31.952,18.447v-22.57ZM2021.843-995.1v-27.859h47.963Zm29.909,9.942V-951.8l-28.888-16.679Zm0,39.017v33.358l-28.888-16.679Zm4.9-2.83h0l-1.839-1.062L2072.77-960.4l-.049,22.826-17.906-10.338,1.839-1.062Zm-34.811,73.989v-28.492l49.748,28.492Zm0-30.767v-21.945l31.952,18.447v-36.895l18.921,10.925-.123,58.534Zm0-25.481v-2.123L2020-932.29v-33.358l1.838,1.062v-2.123l28.889,16.679-1.839,1.062h0l1.839,1.062Zm99.349-59.482-19.979,11.535L2074.756-1025h-.317c-.02-.013-.036-.031-.056-.043a.987.987,0,0,0-.989,0l-.072.042h-51.479v-23.3h66.281Zm23.4,40.755h-26.512l-15.849-27.451,19.975-11.533Zm25.018-68.71-24.571,14.186-24.374-42.217Zm2.05,1.174,21.889,12.536v29.661h-31.659l-1.179,2.042h32.838v23.3h-46.68l-22.953-39.971,20.377-11.764,16.419,28.438,1.178-2.042-15.829-27.417Zm22.438-13.589-.549.951-.409.708-1.429,2.476,1.838-1.062v20.776l-19.911-11.4,18.073-10.434v2.123l2.042-3.537Zm1.492,166.808v-2.122l28.889,16.679-1.839,1.062,1.839,1.061-28.889,16.679v-2.122l-2.042,3.536h0l-.409.708-1.429,2.476,1.838-1.062V-806.6L2173.641-818l18.072-10.434v2.123l2.042-3.537.409-.708,1.43-2.476-1.839,1.061v-33.358Zm0,194.97v-22.57l51.056-29.655-.125,59.715-18.979,10.958V-687.75Zm29.909-14.91v33.357l-28.888-16.679Zm0,39.017v33.357l-28.888-16.678Zm4.9-2.83h0l-1.838-1.062,17.953-10.366-.047,22.827-17.906-10.338,1.838-1.061Zm-34.811-46.13v-27.859h47.963Zm0-29.9v-23.3h66.281l33.068,57.586-19.979,11.535-26.457-45.824h-.317c-.02-.014-.035-.032-.057-.044a.987.987,0,0,0-.989,0l-.072.042Zm169.87,154.007,1.4,2.42-1.4-2.42v2.122L2347-578.583l20.3-11.789v21.384Zm3.88,1.061v-22.57l51.056-29.655-.126,59.715-18.979,10.958v-36.895Zm29.91-14.91v33.358l-28.888-16.679Zm0,39.017v33.358L2370.364-528.2Zm4.9-2.83-1.838-1.062,17.953-10.365-.048,22.826-17.906-10.338Zm-34.811-46.13V-621.7h47.962Zm0-29.9v-23.3h66.281l33.068,57.586-19.979,11.535-26.457-45.824h-.317c-.02-.013-.035-.031-.056-.043a.987.987,0,0,0-.989,0l-.073.042Zm138.87,51.747h32.837v23.3h-46.68l-22.953-39.971,20.376-11.764,16.419,28.438,1.178-2.042-15.829-27.417,25.6-14.78,21.888,12.536v29.661h-31.659Zm29.978-57.583-19.1,11.028-51.477-29.481,51.1-29.683,19.473,11.242-31.952,18.448Zm-27.868-18.447,28.888-16.679v33.358Zm-62.359-328.362,15.829,27.417-15.829,27.417-25.772-14.88.052-25.106ZM2422.25-963.9l.119-56.822,24.575,42.565Zm-1.851-58.573-.126,59.715L2401.295-951.8v-36.895l-31.952,18.447v-22.57ZM2369.343-995.1v-27.859h47.963Zm0,89.352v-21.945l31.952,18.447v-36.895l18.921,10.925-.123,58.534Zm49.748,30.767h-49.748v-28.492Zm-14.937-73.989h0l-1.838-1.062,17.953-10.365-.048,22.826-17.906-10.338,1.838-1.062Zm-33.79,19.509,28.888-16.679v33.358Zm28.888-55.7V-951.8l-28.888-16.679Zm21.859,112.219,13.378,23.3h-65.146v-23.3Zm-51.769,103.321v-22.57l51.056-29.655-.126,59.715-18.979,10.958v-36.895Zm29.91-14.91v33.358l-28.888-16.679Zm0,39.017v33.358l-28.888-16.679Zm4.9-2.83-1.838-1.062,17.953-10.365-.048,22.826-17.906-10.338Zm-34.811-46.13v-27.859h47.963Zm0-29.9v-23.3h66.281l33.068,57.586-19.979,11.535-26.457-45.824h-.317c-.02-.013-.035-.031-.056-.043a.987.987,0,0,0-.989,0l-.072.042ZM2436.2-650l-13.373-23.289,25.889-44.841,19.978,11.535Zm.57.991h0Zm1.133,1.974h26.987l25.887,44.837L2470.4-590.439Zm54.195,98.341h-26.512l-15.849-27.451,19.975-11.533Zm-23.927-96.742,48.945,28.032-24.571,14.186Zm-20.2-130.318,15.829,27.417-15.829,27.417-25.772-14.88.052-25.106Zm-25.715,12.489.119-56.822,24.575,42.565Zm43.332,15.915h26.508l-22.382,38.984L2449.733-719.9Zm4.818,41.741,20.373,11.763-25.887,44.837H2437.9Zm-48.333,29.545.121-57.38,24.756,14.293Zm42.819-173.575H2437.9l32.5-56.6,20.373,11.763Zm27.655-43.816,24.206,13.976-48.559,28.2ZM2469.708-909l-19.975-11.532,15.849-27.451h26.508ZM2436.2-850.632l-13.374-23.289,25.889-44.841,19.978,11.535Zm.569.991Zm-14.7-27.055.12-57.381,24.756,14.293Zm27.665-100.711,19.975-11.533,22.386,38.984h-26.512ZM2493.8-946.99l13.56,23.614.151-.087-15.714,27.217-20.377-11.765Zm1.708-.991h45.546v23.3h-32.168Zm45.546,25.338V-893.6l-22.267,12.933-25.221-14.561,15.829-27.417-.825-1.429h0l.825,1.429Zm-2.859,55.541-30.242,17.46H2469.3l49.416-28.7Zm-21.08,49.065-24.57,14.186-24.374-42.217Zm-26.339,15.207L2470.4-791.068l-32.5-56.6h26.987Zm1.321,53.5h-26.512l-15.849-27.451,19.975-11.533Zm1.7,2.965,13.56,23.614.151-.087-15.714,27.217-20.377-11.764Zm-1.255,53.533,24.205,13.975-48.558,28.2Zm.687,146.1h0Zm47.822,0v23.3h-32.168l-13.378-23.3Zm-33.542,24.519-15.714,27.217L2471.4-506.761l22.394-38.971,13.56,23.614Zm-37.815,14.457-19.96-11.524,15.849-27.452h26.508Zm-21.728-12.545-25.772-14.88.052-25.106,25.72-14.85,15.829,27.417h0Zm-25.715-42.346.119-56.822,24.575,42.565Zm24.694,44.114-24.876,43.087.12-57.381Zm-77.6-130.487v-23.3h51.769l13.378,23.3Zm0-25.338v-28.492l49.748,28.492Zm0-30.767v-21.945l31.952,18.447V-745.51l18.921,10.925-.123,58.534Zm0-25.482v-2.123l-2.042,3.537h0l-.409.708L2365.463-726l1.838-1.062v20.776l-19.91-11.4,18.072-10.434V-726l2.042-3.537.409-.708,1.43-2.476-1.839,1.062v-33.358l1.839,1.062-1.43-2.476-.409-.708-2.042-3.536v2.123L2347-779.212,2367.3-791v21.384l-1.838-1.062,1.429,2.476.409.708,2.042,3.537v-2.123l28.889,16.679-1.839,1.062,1.839,1.062Zm-34.88-142.339H2367.3v23.3h-46.68l-22.953-39.971,20.376-11.764,16.419,28.439,1.179-2.042L2319.813-902.4l25.6-14.78,21.889,12.537v29.661h-31.659Zm29.978-57.583-19.1,11.028-51.476-29.482,51.105-29.683,19.472,11.242-31.952,18.447Zm-27.868-18.448,28.889-16.679v33.358ZM2294.942-890.4l-19.979,11.535-26.457-45.824h-.317c-.02-.014-.035-.031-.057-.044a.987.987,0,0,0-.989,0l-.072.042h-51.479v-23.3h66.281Zm-31.926-59.56Zm-67.423,80.024V-892.5l51.056-29.655-.125,59.715-18.979,10.958v-36.895Zm29.909-14.91v33.358l-28.888-16.679Zm0,39.017v33.358l-28.888-16.678Zm4.9-2.829-1.838-1.062,17.953-10.366-.047,22.826-17.906-10.338Zm-34.811-46.13v-27.859h47.963Zm78.622,219.342,15.83,27.417-15.83,27.417-25.772-14.88.052-25.106ZM2248.5-662.954l.119-56.822,24.574,42.565Zm85.963-9.355H2367.3v23.3h-46.68l-22.953-39.971,20.376-11.764,16.419,28.439,1.179-2.042-15.829-27.417,25.6-14.78,21.889,12.537v29.661h-31.659Zm29.978-57.583-19.1,11.028-51.476-29.481,51.105-29.684,19.472,11.243L2332.49-748.34Zm-27.868-18.448,28.889-16.679v33.358Zm-16.527-98.336,13.56,23.614.151-.086-15.714,27.217-20.38-11.767Zm-.569-.991Zm-45.263-28.4,15.83,27.417-15.83,27.417-25.772-14.88.052-25.106ZM2248.5-863.583l.119-56.822,24.574,42.565Zm43.332,15.916h26.507l-22.385,38.982-19.972-11.531Zm-15.849-29.426,19.975-11.532,22.386,38.984h-26.512Zm42.808,83.95L2343-779.167l-48.559,28.2Zm24.571,75.421-24.571,14.185-24.374-42.216Zm-23.884,70.684Zm.569.991,13.56,23.614.151-.087L2318.044-595.3l-20.377-11.765Zm47.254-.991v23.3h-32.169l-13.378-23.3Zm0,25.338v29.045l-22.268,12.934-25.221-14.561,15.829-27.417-.825-1.429h0l.825,1.429ZM2343-578.539l-48.558,28.2,24.352-42.18ZM2291.136-548.7h-26.982l32.5-56.6,20.373,11.762Zm4.821-59.358-19.974-11.532,15.849-27.451h26.507Zm-19.974-68.408L2295.958-688l22.386,38.984h-26.512Zm-11.834-70.89h26.987l25.887,44.837-20.372,11.762Zm0-1.974,32.5-56.6,20.376,11.764-25.887,44.837Zm-1.7-1-13.369-23.28,25.889-44.842,19.975,11.533Zm-14.125-26.055.12-57.38,24.756,14.293Zm15.832-171.6h26.987l25.887,44.837-20.372,11.762Zm30.268,1.6,48.944,28.031-24.571,14.185Zm-30.266-3.573,32.26-56.737,20.612,11.9-25.887,44.837Zm54.64-43.816L2343-979.8l-48.559,28.2Zm48.51,146.1v23.3h-32.169l-13.378-23.3Zm0,25.338v29.045l-22.268,12.934-25.221-14.561,15.829-27.417-.825-1.428h0l.825,1.429Zm-1.838,291.3-28.889-16.679,28.889-16.679Zm-1.021,1.769-19.1,11.028-51.476-29.482,51.105-29.684,19.472,11.243L2332.49-547.71Zm-21.08,12.17-24.571,14.185-24.374-42.217Zm-26.339,15.206-20.372,11.762-32.5-56.6h26.987Zm-54.577-47.8-13.373-23.288,25.889-44.842,19.978,11.535Zm-14.129-26.063.12-57.381,24.756,14.293Zm-52.725-173.575v-23.3h51.768l13.378,23.3Zm0-25.339v-28.492l49.748,28.492Zm0-30.767v-21.945l31.952,18.448v-36.895l18.921,10.924-.123,58.534Zm0-198.354,49.748,28.492h-49.748Zm29.909-9.31-28.888-16.678,28.888-16.679Zm20.964-22.433L2246.343-977l-50.75-29.066v-21.945l31.952,18.448v-36.895Zm.9,62.276,13.378,23.3h-65.146v-23.3Zm25.833-46.845-24.876,43.087.12-57.381Zm1.769,1.02,19.74,11.4-32.257,56.731-13.372-23.286ZM2317.8-1048.3l-22.084,38.841-19.728-11.39,15.849-27.451Zm1.136,0Zm.571.994,13.881,24.174-15.34,26.568-20.623-11.907Zm47.8,22.3h-32.715l-13.378-23.3H2367.3Zm0,31.087-22.268,12.934-25.221-14.561,15.829-27.417-.608-1.052h0l.608,1.052H2367.3Zm0,25.79,2.042,3.537v-2.123l28.889,16.679-1.839,1.062h0l1.839,1.062-28.889,16.679v-2.123l-2.042,3.537h0l-.409.708-1.429,2.476,1.838-1.062v20.776l-19.911-11.4,18.073-10.434v2.123l2.042-3.537.409-.708,1.43-2.476-1.839,1.062v-33.358l1.839,1.062-1.43-2.476-.409-.708-2.042-3.536v2.123L2347-979.841l20.3-11.789v21.384l-1.838-1.061,1.429,2.476.409.708Zm68.322-80.173,33.068,57.586-19.979,11.535L2422.256-1025h-.317c-.02-.013-.035-.031-.056-.043a.987.987,0,0,0-.989,0l-.072.042h-51.479v-23.3Zm29.263,0,25.887,44.837L2470.4-991.7l-32.5-56.6Zm52.225,29.63-24.57,14.186-24.374-42.217Zm2.05,1.174,21.888,12.536v29.661h-31.659l-1.178,2.042h32.837v23.3h-46.68l-22.953-39.971,20.376-11.764,16.419,28.438,1.178-2.042-15.829-27.417Zm22.438-13.589-.549.951-.409.708-1.429,2.476,1.838-1.062v20.776l-19.911-11.4,18.073-10.434v2.123l2.042-3.537Zm-2.388,160.087v2.123l-18.458-10.657,20.3-11.789v21.384l-1.838-1.062,1.429,2.476.409.708h0l.354.613-.151-.261Zm0,39.017-28.888-16.678,28.888-16.679Zm-20.122,12.8-49.742-28.489h38.6l30.242,17.46Zm21.96,69.852h-46.68L2471.418-789.3l20.376-11.764,16.419,28.438,1.178-2.042-15.829-27.417,25.6-14.78,21.888,12.536v29.661h-31.659l-1.178,2.042h32.837Zm0,25.271h-32.168l-13.378-23.3h45.546Zm0,31.086-22.267,12.934L2493.563-694.6l15.829-27.417-.825-1.429h0l.825,1.429h31.659Zm.2,26.143-2.042-3.537v2.123L2520.755-678.9l20.3-11.788V-669.3l-1.838-1.062,1.429,2.476.409.708h0l.4.691Zm-.2,37.956h0l-.409.708-1.429,2.476,1.838-1.061v20.776l-19.91-11.4,18.072-10.434v2.123l2.042-3.537.346-.6Zm-47.488,134.9,15.829-27.417-.825-1.429h0l.825,1.429h31.659v29.044l-22.267,12.934Zm-25.373,43.948,24.353-42.18,24.206,13.976Zm-30.332,1.636,32.529-56.608,20.387,11.771-25.887,44.837Zm-1.7-1-13.332-23.281,25.891-44.843,19.964,11.526Zm-66.811-22.3h51.766l13.341,23.3h-65.107Zm0-30.534,49.748,28.492h-49.748Zm0-24.22,31.952,18.447v-36.895l18.921,10.925-.123,58.534-50.751-29.066Zm0-5.66-2.042,3.537h0l-.409.708-1.429,2.476,1.838-1.062v20.776l-19.91-11.4,18.072-10.434v2.123l2.042-3.537.409-.708,1.43-2.476-1.839,1.062v-33.358l1.839,1.062-1.43-2.476-.409-.708-.582-1.007.378.655,2.042,3.537v-2.123l28.889,16.679-1.839,1.062,1.839,1.062-28.889,16.679Zm-48.722,83.71-22.953-39.971,20.376-11.764,16.419,28.439,1.179-2.042-15.829-27.417,25.6-14.78,21.889,12.536v29.662h-31.659l-1.179,2.042H2367.3v23.3Zm-44.638-27.451,19.975-11.532,22.386,38.983h-26.512Zm-27.483,13.51.119-56.822,24.574,42.565Zm-51.886-4.58,28.888-16.678v33.357Zm-1.021-24.338,51.056-29.655-.125,59.715-18.979,10.958V-487.12l-31.952,18.448Zm0-30.142h47.963l-47.963,27.859Zm0-25.339h66.28l33.069,57.586L2274.963-477.6l-26.457-45.824h-.317a.682.682,0,0,0-.056-.043.985.985,0,0,0-.989,0l-.072.042h-51.479Zm0-25.271h51.768l13.378,23.3h-65.146Zm0-30.533,49.748,28.492h-49.748Zm0-24.22,31.952,18.448V-645.2l18.921,10.924-.123,58.534-50.75-29.066Zm0-5.659-1.839,1.062V-664.7l1.839,1.061v-2.123l28.889,16.679-1.839,1.062h0l1.839,1.061-28.889,16.679Zm-2.042,3.536h0l-.409.708-1.429,2.476,1.838-1.061v20.776l-19.911-11.4,18.072-10.434v2.123l2.042-3.537.346-.6Zm-47.489,134.9,15.829-27.417-.824-1.429h0l.825,1.429h31.659v29.044l-22.268,12.934Zm-25.373,43.948,24.352-42.18,24.207,13.976Zm-30.392,1.637L2122.867-505l20.406,11.782-25.887,44.837Zm-1.139,0Zm-.569-.99-13.32-23.2,25.943-44.934,19.944,11.515Zm-66.747-22.306H2073.5l13.377,23.3h-65.039Zm0-30.051,48.9,28.009h-48.9Zm0-24.7,31.952,18.447v-36.895l19.255,11.117-.124,59.015L2021.843-504ZM2020-564.389l1.838,1.062v-2.123l28.889,16.679-1.839,1.062,1.839,1.062-28.889,16.679v-2.123l-1.805,3.127.376-.65,1.43-2.476L2020-531.031Zm1.838-199.568-1.43-2.476-.409-.708-2.042-3.536v2.123L1999.5-779.212,2019.8-791v21.383l-1.838-1.062,1.429,2.476.409.708,2.042,3.537v-2.123l28.889,16.679-1.839,1.062,1.839,1.062L2021.843-730.6v-2.123L2020-731.661v-33.358Zm-1.885,235.128-.157.273h0l-.409.708-1.429,2.476,1.838-1.062v21.259l-20.331-11.644,18.493-10.676v2.123Zm-46.837,80.446-22.953-39.971,20.377-11.764,16.419,28.439,1.178-2.042-15.829-27.417,25.179-14.537L2019.8-502.9v29.178h-31.659l-1.179,2.042H2019.8v23.3Zm-44.638-27.451,19.975-11.532,22.386,38.983h-26.512ZM1901-462.325l.119-56.822,24.574,42.565Zm-23,12.1L1849.114-466.9,1878-483.583Z" transform="translate(-1848.093 1049.283)"/></g></g><g transform="translate(1390 1536)"><rect class="a" width="695" height="601.887"/><g transform="translate(0 0)"><path class="b" d="M1876.982-448.457l-1.839,1.062h7.76l-1.838-1.062,17.954-10.366L1899-447.4h1.974l.026-12.569,25.72-14.849,15.83,27.417h177.579l-.01-.007,51.1-29.683,19.472,11.242L2158.74-447.4h4.084l28.889-16.679V-447.4h2.042v-16.679l1.839,1.061-1.43-2.476-.409-.708-2.042-3.537v2.123l-18.458-10.657,20.3-11.789v21.384l-1.838-1.062,1.429,2.476.409.708h0l2.042,3.536v-2.122l28.889,16.679-1.839,1.062h7.76l-1.838-1.062,17.953-10.366L2246.5-447.4h1.974l.026-12.569,25.72-14.849,15.83,27.417h177.579l-.01-.007,51.105-29.683,19.472,11.242L2506.24-447.4h4.084l28.888-16.679V-447.4h2.042v-16.679l1.839,1.061-1.43-2.476-.409-.708-2.042-3.537v2.123l-18.458-10.657,20.3-11.789v21.384l-1.838-1.062,1.429,2.476.409.708h0l2.042,3.536V-632.407l-1.839,1.062V-664.7l1.839,1.061V-833.036l-2.042,3.536h0l-.409.708-1.429,2.476,1.838-1.062V-806.6l-19.91-11.4,18.072-10.434v2.123l2.042-3.537.409-.708,1.43-2.476-1.839,1.061v-33.358l1.839,1.061v-169.394l-1.839,1.062v-16.679h-2.042v16.678l-28.888-16.678h-4.084l31.952,18.447-19.1,11.028-51.467-29.475H2290.045l-15.83,27.417-25.772-14.88.026-12.537H2246.5l-.024,11.4-17.906-10.338,1.838-1.061h-7.76l1.839,1.061-28.889,16.679v-2.123l-1.839,1.062v-16.679h-2.042v16.678l-28.889-16.678h-4.084l31.952,18.447-19.1,11.028-51.467-29.475h-3.307l26.456,45.824L2122.9-991.7l-32.5-56.6h26.417v-.987H1942.545l-15.83,27.417-25.772-14.88.027-12.537H1899l-.024,11.4-17.906-10.338,1.838-1.061h-7.76l1.839,1.061-28.889,16.679v3.537l31.952,18.448v-36.895l18.921,10.924L1898.843-977l-50.75-29.066v2.275l49.748,28.492h-49.748v2.042h51.769l13.377,23.3h-65.146v1.974h66.281l33.068,57.585-19.979,11.535-26.457-45.824h-.316c-.02-.014-.035-.031-.057-.044a.988.988,0,0,0-.989,0l-.072.042h-51.479v2.042h47.963l-47.963,27.859v2.283l51.057-29.656-.125,59.715-18.979,10.958v-36.895l-31.952,18.448v3.537l28.889,16.679-1.839,1.062,1.839,1.061-28.889,16.679v3.537l31.952,18.448v-36.895l18.921,10.924-.123,58.534-50.75-29.066v2.275l49.748,28.492h-49.748v2.042h51.769l13.378,23.3h-65.146v1.974h66.281l33.068,57.586-19.979,11.535-26.457-45.824h-.316c-.02-.014-.035-.032-.057-.044a.987.987,0,0,0-.989,0l-.072.042h-51.479v2.042h47.963l-47.963,27.859v2.283l51.057-29.655-.125,59.715-18.979,10.958V-687.75L1848.093-669.3v3.537l28.889,16.679-1.839,1.062h0l1.839,1.061-28.889,16.679v3.537l31.952,18.448V-645.2l18.921,10.924-.123,58.534-50.75-29.066v2.274l49.748,28.492h-49.748v2.042h51.769l13.378,23.3h-65.146v1.974h66.281l33.068,57.586L1927.463-477.6l-26.457-45.824h-.317c-.02-.014-.035-.031-.056-.043a.985.985,0,0,0-.989,0l-.072.042h-51.479v2.042h47.963l-47.963,27.859v2.283L1899.15-520.9l-.125,59.715-18.979,10.958V-487.12l-31.952,18.448v3.537Zm1.021-202.4-28.888-16.679L1878-684.212Zm0,39.017-28.888-16.678L1878-645.2Zm21.017-47.615-.048,22.827-17.906-10.338,1.838-1.061h0l-1.838-1.062ZM1878-851.484l-28.888-16.679L1878-884.842Zm0,39.017-28.888-16.678L1878-845.824Zm21.017-47.615-.048,22.826-17.906-10.338,1.838-1.061-1.838-1.062ZM1878-1013.1l-28.888-16.678L1878-1046.453Zm38.647,466.372h26.987l25.887,44.837-20.372,11.762Zm101.313-23.325,1.4,2.42-1.4-2.42v2.122l-17.709-10.224L2019.8-589.5v20.517Zm-31-102.26H2019.8v23.3h-46.68l-22.953-39.971,20.377-11.764,16.419,28.439,1.178-2.042-15.829-27.417,25.6-14.78,21.889,12.536v29.662h-31.659Zm31-53.692,1.838-1.062v20.776l-19.911-11.4,18.072-10.434V-726l1.838-3.185-.409.708Zm-45.416-120.675,13.56,23.614.151-.086-15.714,27.217-20.38-11.767Zm-24.092,37.991-19.972-11.531,15.849-27.451h26.508Zm22.837,15.543,24.206,13.975-48.559,28.2Zm26.177,15.114,19.473,11.242L1984.99-748.34l31.952,18.448-19.1,11.028-51.477-29.481Zm-1.606,60.307-24.571,14.186-24.374-42.217Zm22.1-47.3v33.358l-28.889-16.679Zm-45.416,118.972,13.56,23.614.151-.086L1970.545-595.3l-20.38-11.767Zm-24.092,37.991-19.972-11.53,15.849-27.451h26.508Zm22.837,15.543,24.955,14.408-50.061,29.077Zm48.51-54.525v23.3h-32.168l-13.379-23.3Zm0,25.338v29.912l-21.519,12.5-25.969-14.994,15.829-27.417-.825-1.429h0l.825,1.429Zm-1.838,90.668-28.889-16.679,28.889-16.679Zm-1.021,1.769-19.521,11.271-50.724-29.05,51.521-29.925,18.724,10.81L1984.99-547.71Zm-21.5,12.412-24.15,13.943L1947.335-544.4Zm-78.8-31.847,32.5-56.6,20.376,11.764L1943.636-548.7Zm-15.072-24.28,25.89-44.842,19.975,11.533-32.5,56.589Zm-.635-60.155,24.756,14.293-24.877,43.087Zm24.756-44.078L1901-662.954l.119-56.822Zm16.851,29.186-15.83,27.417-25.772-14.88.052-25.106,25.72-14.849ZM1948.458-688l22.386,38.984h-26.512l-15.849-27.451Zm-31.809-59.357h26.987l25.887,44.837-20.372,11.762Zm0-1.974,32.5-56.6,20.375,11.764-25.887,44.837Zm-15.072-24.28,25.89-44.842,19.975,11.533-32.5,56.589Zm-.635-60.155,24.756,14.293-24.877,43.087Zm24.756-44.078L1901-863.583l.119-56.822Zm16.851,29.186-15.83,27.417-25.772-14.88.052-25.106,25.72-14.849Zm5.913-39.971,22.386,38.984h-26.512l-15.849-27.451Zm-31.808-59.357h26.986l25.887,44.837-20.372,11.762Zm100.291,17.46-19.1,11.028-51.477-29.482,51.1-29.683,19.473,11.242-31.952,18.447Zm-27.868-18.448,28.889-16.679v33.358Zm-42.135-2.623,24.353-42.18L1995.5-979.8Zm48.923,33.241-24.57,14.185-24.374-42.217Zm-79.226-31.6,32.355-56.691,20.531,11.854-25.887,44.837Zm9.058-70.142-24.877,43.087.121-57.381Zm1.769,1.02,19.82,11.443-32.344,56.672-13.364-23.273Zm43.027-29.219-22.2,38.889-19.811-11.438,15.849-27.451Zm1.136,0Zm.57.992,13.785,24.005-15.437,26.738L1950-1008.42Zm47.6,22.3h-32.52l-13.378-23.3h45.9Zm0,31.087-22.268,12.934-25.221-14.561,15.829-27.417-.559-.968h0l.56.968H2019.8Zm-1.838,22.606,1.429,2.476.409.708-1.838-3.184v2.123L1999.5-979.841l20.3-11.788v21.383Zm1.838,64.391-19.911-11.4,18.072-10.434v2.123l1.838-3.185-.409.708-1.429,2.476,1.838-1.062Zm0,57.275h-46.68l-22.953-39.971,20.377-11.764,16.419,28.439,1.178-2.042L1972.313-902.4l25.6-14.78,21.889,12.536v29.662h-31.659l-1.179,2.042H2019.8Zm0,25.271h-32.168l-13.378-23.3H2019.8Zm0,31.087-22.268,12.934-25.221-14.561,15.829-27.417-.825-1.428h0l.825,1.429H2019.8Zm2.042,224.3v-21.7l51.389-29.849-.123,58.848-19.314,11.151v-36.895Zm29.909-14.91v33.358l-28.888-16.679Zm0,39.017v33.358L2022.864-528.2Zm4.9-2.83-1.839-1.062,18.288-10.559-.048,23.212-18.24-10.53Zm-34.811-45.263V-621.7H2071.3Zm0-30.768v-23.3h66.281l33.068,57.586-19.979,11.535-26.457-45.824Zm138.87,51.747h32.838v23.3h-46.68l-22.953-39.971,20.377-11.764,16.419,28.438,1.178-2.042-15.829-27.417,25.6-14.78,21.889,12.536v29.661h-31.659Zm31-98.369,1.429,2.476.409.708h0l.4.691-.2-.339-2.042-3.537v2.123L2173.255-678.9l20.3-11.788V-669.3Zm-31-102.26h32.838v23.3h-46.68L2123.918-789.3l20.377-11.764,16.419,28.438,1.178-2.042-15.829-27.417,25.6-14.78,21.889,12.536v29.661h-31.659Zm31-98.369,1.429,2.476.409.708h0l.354.613-.151-.261-2.042-3.537v2.123l-18.458-10.657,20.3-11.789v21.384Zm-91.248-105.394,15.83,27.417-15.83,27.417-25.772-14.88.052-25.106ZM2074.751-963.9l.119-56.822,24.574,42.565Zm25.714,188.14,15.83,27.417-15.83,27.417-25.772-14.88.052-25.106Zm-25.714,12.489.119-56.822,24.574,42.565Zm15.649,116.23h26.987l25.887,44.837L2122.9-590.439Zm54.195,98.341h-26.512l-15.849-27.451,19.975-11.533Zm-23.927-96.742,48.945,28.032-24.571,14.186Zm-30.273-3.573,32.5-56.6,20.376,11.764-25.887,44.837Zm55.9-97.349,13.56,23.614.151-.087-15.714,27.217-20.38-11.766Zm-24.092,37.99L2102.233-719.9l15.849-27.451h26.508Zm22.836,15.543,24.207,13.975-48.559,28.2Zm-56.349,42.817-13.369-23.28,25.889-44.841,19.975,11.533Zm-14.125-26.055.12-57.38,24.756,14.293Zm27.665-100.711,19.975-11.533,22.386,38.984h-26.512ZM2090.4-847.667h26.987l25.887,44.837L2122.9-791.068Zm30.268,1.6,48.944,28.031-24.571,14.186Zm-3.281-3.573H2090.4l32.5-56.6,20.373,11.763Zm27.655-43.816,24.207,13.976-48.559,28.2ZM2088.7-850.632l-13.374-23.289,25.889-44.841,19.978,11.535ZM2074.568-876.7l.12-57.381,24.756,14.293Zm43.514-71.286h26.508L2122.208-909l-19.974-11.532Zm28.215.991,13.56,23.614.151-.087-15.714,27.217-20.377-11.765Zm1.707-.991h45.547v23.3h-32.169Zm45.547,25.338V-893.6l-22.268,12.933-25.221-14.561,15.829-27.417-.824-1.429h0l.825,1.429Zm-1.838,90.667-28.889-16.678,28.889-16.679Zm-1.021,1.769-19.1,11.028-51.477-29.482,51.1-29.684,19.472,11.242-31.952,18.448Zm2.86,82.854v23.3h-32.169L2148-747.353Zm0,25.339v29.044l-22.268,12.934L2146.063-694.6l15.829-27.417-.824-1.429h0l.825,1.429Zm-1.838,90.668-28.889-16.678,28.889-16.679Zm-1.021,1.769-19.1,11.028-51.477-29.481,51.1-29.683,19.472,11.242-31.952,18.448Zm-44.963,82.854h0Zm47.823,0v23.3h-32.169L2148-546.724Zm-33.543,24.519-15.714,27.217-20.41-11.783,22.412-38.961,13.56,23.614Zm-37.833,14.446-19.942-11.513,15.849-27.452h26.507Zm-21.71-12.534-25.438-14.687.053-25.492,25.385-14.656,15.83,27.417Zm-25.381-42.539.117-56.053,24.242,41.989Zm24.359,44.307L2074.9-476.018l.118-56.607Zm-77.6-130.487v-23.3h51.769l13.378,23.3Zm34.811-99.328-1.839-1.062,17.954-10.365-.049,22.827-17.906-10.338Zm-34.811,73.989v-28.492l49.749,28.492Zm0-30.767v-21.945l31.952,18.447V-745.51l18.921,10.925-.123,58.534Zm1.021-23.713,28.888-16.679v33.358Zm-1.021-40.786v-22.57l51.056-29.655-.125,59.715-18.979,10.958v-36.895Zm29.909-14.91v33.358l-28.888-16.679Zm-29.909-9.942v-27.859h47.963Zm0-29.9v-23.3h66.281l33.068,57.586-19.979,11.535-26.457-45.824h-.317c-.02-.013-.036-.031-.056-.043a.987.987,0,0,0-.989,0l-.072.042Zm0-25.271v-23.3h51.769l13.378,23.3Zm51.056-172.829-.125,59.715L2053.795-951.8v-36.895l-31.952,18.447v-22.57ZM2021.843-995.1v-27.859h47.963Zm29.909,9.942V-951.8l-28.888-16.679Zm0,39.017v33.358l-28.888-16.679Zm4.9-2.83h0l-1.839-1.062L2072.77-960.4l-.049,22.826-17.906-10.338,1.839-1.062Zm-34.811,73.989v-28.492l49.748,28.492Zm0-30.767v-21.945l31.952,18.447v-36.895l18.921,10.925-.123,58.534Zm0-25.481v-2.123L2020-932.29v-33.358l1.838,1.062v-2.123l28.889,16.679-1.839,1.062h0l1.839,1.062Zm99.349-59.482-19.979,11.535L2074.756-1025h-.317c-.02-.013-.036-.031-.056-.043a.987.987,0,0,0-.989,0l-.072.042h-51.479v-23.3h66.281Zm23.4,40.755h-26.512l-15.849-27.451,19.975-11.533Zm25.018-68.71-24.571,14.186-24.374-42.217Zm2.05,1.174,21.889,12.536v29.661h-31.659l-1.179,2.042h32.838v23.3h-46.68l-22.953-39.971,20.377-11.764,16.419,28.438,1.178-2.042-15.829-27.417Zm22.438-13.589-.549.951-.409.708-1.429,2.476,1.838-1.062v20.776l-19.911-11.4,18.073-10.434v2.123l2.042-3.537Zm1.492,166.808v-2.122l28.889,16.679-1.839,1.062,1.839,1.061-28.889,16.679v-2.122l-2.042,3.536h0l-.409.708-1.429,2.476,1.838-1.062V-806.6L2173.641-818l18.072-10.434v2.123l2.042-3.537.409-.708,1.43-2.476-1.839,1.061v-33.358Zm0,194.97v-22.57l51.056-29.655-.125,59.715-18.979,10.958V-687.75Zm29.909-14.91v33.357l-28.888-16.679Zm0,39.017v33.357l-28.888-16.678Zm4.9-2.83h0l-1.838-1.062,17.953-10.366-.047,22.827-17.906-10.338,1.838-1.061Zm-34.811-46.13v-27.859h47.963Zm0-29.9v-23.3h66.281l33.068,57.586-19.979,11.535-26.457-45.824h-.317c-.02-.014-.035-.032-.057-.044a.987.987,0,0,0-.989,0l-.072.042Zm169.87,154.007,1.4,2.42-1.4-2.42v2.122L2347-578.583l20.3-11.789v21.384Zm3.88,1.061v-22.57l51.056-29.655-.126,59.715-18.979,10.958v-36.895Zm29.91-14.91v33.358l-28.888-16.679Zm0,39.017v33.358L2370.364-528.2Zm4.9-2.83-1.838-1.062,17.953-10.365-.048,22.826-17.906-10.338Zm-34.811-46.13V-621.7h47.962Zm0-29.9v-23.3h66.281l33.068,57.586-19.979,11.535-26.457-45.824h-.317c-.02-.013-.035-.031-.056-.043a.987.987,0,0,0-.989,0l-.073.042Zm138.87,51.747h32.837v23.3h-46.68l-22.953-39.971,20.376-11.764,16.419,28.438,1.178-2.042-15.829-27.417,25.6-14.78,21.888,12.536v29.661h-31.659Zm29.978-57.583-19.1,11.028-51.477-29.481,51.1-29.683,19.473,11.242-31.952,18.448Zm-27.868-18.447,28.888-16.679v33.358Zm-62.359-328.362,15.829,27.417-15.829,27.417-25.772-14.88.052-25.106ZM2422.25-963.9l.119-56.822,24.575,42.565Zm-1.851-58.573-.126,59.715L2401.295-951.8v-36.895l-31.952,18.447v-22.57ZM2369.343-995.1v-27.859h47.963Zm0,89.352v-21.945l31.952,18.447v-36.895l18.921,10.925-.123,58.534Zm49.748,30.767h-49.748v-28.492Zm-14.937-73.989h0l-1.838-1.062,17.953-10.365-.048,22.826-17.906-10.338,1.838-1.062Zm-33.79,19.509,28.888-16.679v33.358Zm28.888-55.7V-951.8l-28.888-16.679Zm21.859,112.219,13.378,23.3h-65.146v-23.3Zm-51.769,103.321v-22.57l51.056-29.655-.126,59.715-18.979,10.958v-36.895Zm29.91-14.91v33.358l-28.888-16.679Zm0,39.017v33.358l-28.888-16.679Zm4.9-2.83-1.838-1.062,17.953-10.365-.048,22.826-17.906-10.338Zm-34.811-46.13v-27.859h47.963Zm0-29.9v-23.3h66.281l33.068,57.586-19.979,11.535-26.457-45.824h-.317c-.02-.013-.035-.031-.056-.043a.987.987,0,0,0-.989,0l-.072.042ZM2436.2-650l-13.373-23.289,25.889-44.841,19.978,11.535Zm.57.991h0Zm1.133,1.974h26.987l25.887,44.837L2470.4-590.439Zm54.195,98.341h-26.512l-15.849-27.451,19.975-11.533Zm-23.927-96.742,48.945,28.032-24.571,14.186Zm-20.2-130.318,15.829,27.417-15.829,27.417-25.772-14.88.052-25.106Zm-25.715,12.489.119-56.822,24.575,42.565Zm43.332,15.915h26.508l-22.382,38.984L2449.733-719.9Zm4.818,41.741,20.373,11.763-25.887,44.837H2437.9Zm-48.333,29.545.121-57.38,24.756,14.293Zm42.819-173.575H2437.9l32.5-56.6,20.373,11.763Zm27.655-43.816,24.206,13.976-48.559,28.2ZM2469.708-909l-19.975-11.532,15.849-27.451h26.508ZM2436.2-850.632l-13.374-23.289,25.889-44.841,19.978,11.535Zm.569.991Zm-14.7-27.055.12-57.381,24.756,14.293Zm27.665-100.711,19.975-11.533,22.386,38.984h-26.512ZM2493.8-946.99l13.56,23.614.151-.087-15.714,27.217-20.377-11.765Zm1.708-.991h45.546v23.3h-32.168Zm45.546,25.338V-893.6l-22.267,12.933-25.221-14.561,15.829-27.417-.825-1.429h0l.825,1.429Zm-2.859,55.541-30.242,17.46H2469.3l49.416-28.7Zm-21.08,49.065-24.57,14.186-24.374-42.217Zm-26.339,15.207L2470.4-791.068l-32.5-56.6h26.987Zm1.321,53.5h-26.512l-15.849-27.451,19.975-11.533Zm1.7,2.965,13.56,23.614.151-.087-15.714,27.217-20.377-11.764Zm-1.255,53.533,24.205,13.975-48.558,28.2Zm.687,146.1h0Zm47.822,0v23.3h-32.168l-13.378-23.3Zm-33.542,24.519-15.714,27.217L2471.4-506.761l22.394-38.971,13.56,23.614Zm-37.815,14.457-19.96-11.524,15.849-27.452h26.508Zm-21.728-12.545-25.772-14.88.052-25.106,25.72-14.85,15.829,27.417h0Zm-25.715-42.346.119-56.822,24.575,42.565Zm24.694,44.114-24.876,43.087.12-57.381Zm-77.6-130.487v-23.3h51.769l13.378,23.3Zm0-25.338v-28.492l49.748,28.492Zm0-30.767v-21.945l31.952,18.447V-745.51l18.921,10.925-.123,58.534Zm0-25.482v-2.123l-2.042,3.537h0l-.409.708L2365.463-726l1.838-1.062v20.776l-19.91-11.4,18.072-10.434V-726l2.042-3.537.409-.708,1.43-2.476-1.839,1.062v-33.358l1.839,1.062-1.43-2.476-.409-.708-2.042-3.536v2.123L2347-779.212,2367.3-791v21.384l-1.838-1.062,1.429,2.476.409.708,2.042,3.537v-2.123l28.889,16.679-1.839,1.062,1.839,1.062Zm-34.88-142.339H2367.3v23.3h-46.68l-22.953-39.971,20.376-11.764,16.419,28.439,1.179-2.042L2319.813-902.4l25.6-14.78,21.889,12.537v29.661h-31.659Zm29.978-57.583-19.1,11.028-51.476-29.482,51.105-29.683,19.472,11.242-31.952,18.447Zm-27.868-18.448,28.889-16.679v33.358ZM2294.942-890.4l-19.979,11.535-26.457-45.824h-.317c-.02-.014-.035-.031-.057-.044a.987.987,0,0,0-.989,0l-.072.042h-51.479v-23.3h66.281Zm-31.926-59.56Zm-67.423,80.024V-892.5l51.056-29.655-.125,59.715-18.979,10.958v-36.895Zm29.909-14.91v33.358l-28.888-16.679Zm0,39.017v33.358l-28.888-16.678Zm4.9-2.829-1.838-1.062,17.953-10.366-.047,22.826-17.906-10.338Zm-34.811-46.13v-27.859h47.963Zm78.622,219.342,15.83,27.417-15.83,27.417-25.772-14.88.052-25.106ZM2248.5-662.954l.119-56.822,24.574,42.565Zm85.963-9.355H2367.3v23.3h-46.68l-22.953-39.971,20.376-11.764,16.419,28.439,1.179-2.042-15.829-27.417,25.6-14.78,21.889,12.537v29.661h-31.659Zm29.978-57.583-19.1,11.028-51.476-29.481,51.105-29.684,19.472,11.243L2332.49-748.34Zm-27.868-18.448,28.889-16.679v33.358Zm-16.527-98.336,13.56,23.614.151-.086-15.714,27.217-20.38-11.767Zm-.569-.991Zm-45.263-28.4,15.83,27.417-15.83,27.417-25.772-14.88.052-25.106ZM2248.5-863.583l.119-56.822,24.574,42.565Zm43.332,15.916h26.507l-22.385,38.982-19.972-11.531Zm-15.849-29.426,19.975-11.532,22.386,38.984h-26.512Zm42.808,83.95L2343-779.167l-48.559,28.2Zm24.571,75.421-24.571,14.185-24.374-42.216Zm-23.884,70.684Zm.569.991,13.56,23.614.151-.087L2318.044-595.3l-20.377-11.765Zm47.254-.991v23.3h-32.169l-13.378-23.3Zm0,25.338v29.045l-22.268,12.934-25.221-14.561,15.829-27.417-.825-1.429h0l.825,1.429ZM2343-578.539l-48.558,28.2,24.352-42.18ZM2291.136-548.7h-26.982l32.5-56.6,20.373,11.762Zm4.821-59.358-19.974-11.532,15.849-27.451h26.507Zm-19.974-68.408L2295.958-688l22.386,38.984h-26.512Zm-11.834-70.89h26.987l25.887,44.837-20.372,11.762Zm0-1.974,32.5-56.6,20.376,11.764-25.887,44.837Zm-1.7-1-13.369-23.28,25.889-44.842,19.975,11.533Zm-14.125-26.055.12-57.38,24.756,14.293Zm15.832-171.6h26.987l25.887,44.837-20.372,11.762Zm30.268,1.6,48.944,28.031-24.571,14.185Zm-30.266-3.573,32.26-56.737,20.612,11.9-25.887,44.837Zm54.64-43.816L2343-979.8l-48.559,28.2Zm48.51,146.1v23.3h-32.169l-13.378-23.3Zm0,25.338v29.045l-22.268,12.934-25.221-14.561,15.829-27.417-.825-1.428h0l.825,1.429Zm-1.838,291.3-28.889-16.679,28.889-16.679Zm-1.021,1.769-19.1,11.028-51.476-29.482,51.105-29.684,19.472,11.243L2332.49-547.71Zm-21.08,12.17-24.571,14.185-24.374-42.217Zm-26.339,15.206-20.372,11.762-32.5-56.6h26.987Zm-54.577-47.8-13.373-23.288,25.889-44.842,19.978,11.535Zm-14.129-26.063.12-57.381,24.756,14.293Zm-52.725-173.575v-23.3h51.768l13.378,23.3Zm0-25.339v-28.492l49.748,28.492Zm0-30.767v-21.945l31.952,18.448v-36.895l18.921,10.924-.123,58.534Zm0-198.354,49.748,28.492h-49.748Zm29.909-9.31-28.888-16.678,28.888-16.679Zm20.964-22.433L2246.343-977l-50.75-29.066v-21.945l31.952,18.448v-36.895Zm.9,62.276,13.378,23.3h-65.146v-23.3Zm25.833-46.845-24.876,43.087.12-57.381Zm1.769,1.02,19.74,11.4-32.257,56.731-13.372-23.286ZM2317.8-1048.3l-22.084,38.841-19.728-11.39,15.849-27.451Zm1.136,0Zm.571.994,13.881,24.174-15.34,26.568-20.623-11.907Zm47.8,22.3h-32.715l-13.378-23.3H2367.3Zm0,31.087-22.268,12.934-25.221-14.561,15.829-27.417-.608-1.052h0l.608,1.052H2367.3Zm0,25.79,2.042,3.537v-2.123l28.889,16.679-1.839,1.062h0l1.839,1.062-28.889,16.679v-2.123l-2.042,3.537h0l-.409.708-1.429,2.476,1.838-1.062v20.776l-19.911-11.4,18.073-10.434v2.123l2.042-3.537.409-.708,1.43-2.476-1.839,1.062v-33.358l1.839,1.062-1.43-2.476-.409-.708-2.042-3.536v2.123L2347-979.841l20.3-11.789v21.384l-1.838-1.061,1.429,2.476.409.708Zm68.322-80.173,33.068,57.586-19.979,11.535L2422.256-1025h-.317c-.02-.013-.035-.031-.056-.043a.987.987,0,0,0-.989,0l-.072.042h-51.479v-23.3Zm29.263,0,25.887,44.837L2470.4-991.7l-32.5-56.6Zm52.225,29.63-24.57,14.186-24.374-42.217Zm2.05,1.174,21.888,12.536v29.661h-31.659l-1.178,2.042h32.837v23.3h-46.68l-22.953-39.971,20.376-11.764,16.419,28.438,1.178-2.042-15.829-27.417Zm22.438-13.589-.549.951-.409.708-1.429,2.476,1.838-1.062v20.776l-19.911-11.4,18.073-10.434v2.123l2.042-3.537Zm-2.388,160.087v2.123l-18.458-10.657,20.3-11.789v21.384l-1.838-1.062,1.429,2.476.409.708h0l.354.613-.151-.261Zm0,39.017-28.888-16.678,28.888-16.679Zm-20.122,12.8-49.742-28.489h38.6l30.242,17.46Zm21.96,69.852h-46.68L2471.418-789.3l20.376-11.764,16.419,28.438,1.178-2.042-15.829-27.417,25.6-14.78,21.888,12.536v29.661h-31.659l-1.178,2.042h32.837Zm0,25.271h-32.168l-13.378-23.3h45.546Zm0,31.086-22.267,12.934L2493.563-694.6l15.829-27.417-.825-1.429h0l.825,1.429h31.659Zm.2,26.143-2.042-3.537v2.123L2520.755-678.9l20.3-11.788V-669.3l-1.838-1.062,1.429,2.476.409.708h0l.4.691Zm-.2,37.956h0l-.409.708-1.429,2.476,1.838-1.061v20.776l-19.91-11.4,18.072-10.434v2.123l2.042-3.537.346-.6Zm-47.488,134.9,15.829-27.417-.825-1.429h0l.825,1.429h31.659v29.044l-22.267,12.934Zm-25.373,43.948,24.353-42.18,24.206,13.976Zm-30.332,1.636,32.529-56.608,20.387,11.771-25.887,44.837Zm-1.7-1-13.332-23.281,25.891-44.843,19.964,11.526Zm-66.811-22.3h51.766l13.341,23.3h-65.107Zm0-30.534,49.748,28.492h-49.748Zm0-24.22,31.952,18.447v-36.895l18.921,10.925-.123,58.534-50.751-29.066Zm0-5.66-2.042,3.537h0l-.409.708-1.429,2.476,1.838-1.062v20.776l-19.91-11.4,18.072-10.434v2.123l2.042-3.537.409-.708,1.43-2.476-1.839,1.062v-33.358l1.839,1.062-1.43-2.476-.409-.708-.582-1.007.378.655,2.042,3.537v-2.123l28.889,16.679-1.839,1.062,1.839,1.062-28.889,16.679Zm-48.722,83.71-22.953-39.971,20.376-11.764,16.419,28.439,1.179-2.042-15.829-27.417,25.6-14.78,21.889,12.536v29.662h-31.659l-1.179,2.042H2367.3v23.3Zm-44.638-27.451,19.975-11.532,22.386,38.983h-26.512Zm-27.483,13.51.119-56.822,24.574,42.565Zm-51.886-4.58,28.888-16.678v33.357Zm-1.021-24.338,51.056-29.655-.125,59.715-18.979,10.958V-487.12l-31.952,18.448Zm0-30.142h47.963l-47.963,27.859Zm0-25.339h66.28l33.069,57.586L2274.963-477.6l-26.457-45.824h-.317a.682.682,0,0,0-.056-.043.985.985,0,0,0-.989,0l-.072.042h-51.479Zm0-25.271h51.768l13.378,23.3h-65.146Zm0-30.533,49.748,28.492h-49.748Zm0-24.22,31.952,18.448V-645.2l18.921,10.924-.123,58.534-50.75-29.066Zm0-5.659-1.839,1.062V-664.7l1.839,1.061v-2.123l28.889,16.679-1.839,1.062h0l1.839,1.061-28.889,16.679Zm-2.042,3.536h0l-.409.708-1.429,2.476,1.838-1.061v20.776l-19.911-11.4,18.072-10.434v2.123l2.042-3.537.346-.6Zm-47.489,134.9,15.829-27.417-.824-1.429h0l.825,1.429h31.659v29.044l-22.268,12.934Zm-25.373,43.948,24.352-42.18,24.207,13.976Zm-30.392,1.637L2122.867-505l20.406,11.782-25.887,44.837Zm-1.139,0Zm-.569-.99-13.32-23.2,25.943-44.934,19.944,11.515Zm-66.747-22.306H2073.5l13.377,23.3h-65.039Zm0-30.051,48.9,28.009h-48.9Zm0-24.7,31.952,18.447v-36.895l19.255,11.117-.124,59.015L2021.843-504ZM2020-564.389l1.838,1.062v-2.123l28.889,16.679-1.839,1.062,1.839,1.062-28.889,16.679v-2.123l-1.805,3.127.376-.65,1.43-2.476L2020-531.031Zm1.838-199.568-1.43-2.476-.409-.708-2.042-3.536v2.123L1999.5-779.212,2019.8-791v21.383l-1.838-1.062,1.429,2.476.409.708,2.042,3.537v-2.123l28.889,16.679-1.839,1.062,1.839,1.062L2021.843-730.6v-2.123L2020-731.661v-33.358Zm-1.885,235.128-.157.273h0l-.409.708-1.429,2.476,1.838-1.062v21.259l-20.331-11.644,18.493-10.676v2.123Zm-46.837,80.446-22.953-39.971,20.377-11.764,16.419,28.439,1.178-2.042-15.829-27.417,25.179-14.537L2019.8-502.9v29.178h-31.659l-1.179,2.042H2019.8v23.3Zm-44.638-27.451,19.975-11.532,22.386,38.983h-26.512ZM1901-462.325l.119-56.822,24.574,42.565Zm-23,12.1L1849.114-466.9,1878-483.583Z" transform="translate(-1848.093 1049.283)"/></g></g><g transform="translate(695 1536)"><rect class="a" width="695" height="601.887"/><g transform="translate(0 0)"><path class="b" d="M1876.982-448.457l-1.839,1.062h7.76l-1.838-1.062,17.954-10.366L1899-447.4h1.974l.026-12.569,25.72-14.849,15.83,27.417h177.579l-.01-.007,51.1-29.683,19.472,11.242L2158.74-447.4h4.084l28.889-16.679V-447.4h2.042v-16.679l1.839,1.061-1.43-2.476-.409-.708-2.042-3.537v2.123l-18.458-10.657,20.3-11.789v21.384l-1.838-1.062,1.429,2.476.409.708h0l2.042,3.536v-2.122l28.889,16.679-1.839,1.062h7.76l-1.838-1.062,17.953-10.366L2246.5-447.4h1.974l.026-12.569,25.72-14.849,15.83,27.417h177.579l-.01-.007,51.105-29.683,19.472,11.242L2506.24-447.4h4.084l28.888-16.679V-447.4h2.042v-16.679l1.839,1.061-1.43-2.476-.409-.708-2.042-3.537v2.123l-18.458-10.657,20.3-11.789v21.384l-1.838-1.062,1.429,2.476.409.708h0l2.042,3.536V-632.407l-1.839,1.062V-664.7l1.839,1.061V-833.036l-2.042,3.536h0l-.409.708-1.429,2.476,1.838-1.062V-806.6l-19.91-11.4,18.072-10.434v2.123l2.042-3.537.409-.708,1.43-2.476-1.839,1.061v-33.358l1.839,1.061v-169.394l-1.839,1.062v-16.679h-2.042v16.678l-28.888-16.678h-4.084l31.952,18.447-19.1,11.028-51.467-29.475H2290.045l-15.83,27.417-25.772-14.88.026-12.537H2246.5l-.024,11.4-17.906-10.338,1.838-1.061h-7.76l1.839,1.061-28.889,16.679v-2.123l-1.839,1.062v-16.679h-2.042v16.678l-28.889-16.678h-4.084l31.952,18.447-19.1,11.028-51.467-29.475h-3.307l26.456,45.824L2122.9-991.7l-32.5-56.6h26.417v-.987H1942.545l-15.83,27.417-25.772-14.88.027-12.537H1899l-.024,11.4-17.906-10.338,1.838-1.061h-7.76l1.839,1.061-28.889,16.679v3.537l31.952,18.448v-36.895l18.921,10.924L1898.843-977l-50.75-29.066v2.275l49.748,28.492h-49.748v2.042h51.769l13.377,23.3h-65.146v1.974h66.281l33.068,57.585-19.979,11.535-26.457-45.824h-.316c-.02-.014-.035-.031-.057-.044a.988.988,0,0,0-.989,0l-.072.042h-51.479v2.042h47.963l-47.963,27.859v2.283l51.057-29.656-.125,59.715-18.979,10.958v-36.895l-31.952,18.448v3.537l28.889,16.679-1.839,1.062,1.839,1.061-28.889,16.679v3.537l31.952,18.448v-36.895l18.921,10.924-.123,58.534-50.75-29.066v2.275l49.748,28.492h-49.748v2.042h51.769l13.378,23.3h-65.146v1.974h66.281l33.068,57.586-19.979,11.535-26.457-45.824h-.316c-.02-.014-.035-.032-.057-.044a.987.987,0,0,0-.989,0l-.072.042h-51.479v2.042h47.963l-47.963,27.859v2.283l51.057-29.655-.125,59.715-18.979,10.958V-687.75L1848.093-669.3v3.537l28.889,16.679-1.839,1.062h0l1.839,1.061-28.889,16.679v3.537l31.952,18.448V-645.2l18.921,10.924-.123,58.534-50.75-29.066v2.274l49.748,28.492h-49.748v2.042h51.769l13.378,23.3h-65.146v1.974h66.281l33.068,57.586L1927.463-477.6l-26.457-45.824h-.317c-.02-.014-.035-.031-.056-.043a.985.985,0,0,0-.989,0l-.072.042h-51.479v2.042h47.963l-47.963,27.859v2.283L1899.15-520.9l-.125,59.715-18.979,10.958V-487.12l-31.952,18.448v3.537Zm1.021-202.4-28.888-16.679L1878-684.212Zm0,39.017-28.888-16.678L1878-645.2Zm21.017-47.615-.048,22.827-17.906-10.338,1.838-1.061h0l-1.838-1.062ZM1878-851.484l-28.888-16.679L1878-884.842Zm0,39.017-28.888-16.678L1878-845.824Zm21.017-47.615-.048,22.826-17.906-10.338,1.838-1.061-1.838-1.062ZM1878-1013.1l-28.888-16.678L1878-1046.453Zm38.647,466.372h26.987l25.887,44.837-20.372,11.762Zm101.313-23.325,1.4,2.42-1.4-2.42v2.122l-17.709-10.224L2019.8-589.5v20.517Zm-31-102.26H2019.8v23.3h-46.68l-22.953-39.971,20.377-11.764,16.419,28.439,1.178-2.042-15.829-27.417,25.6-14.78,21.889,12.536v29.662h-31.659Zm31-53.692,1.838-1.062v20.776l-19.911-11.4,18.072-10.434V-726l1.838-3.185-.409.708Zm-45.416-120.675,13.56,23.614.151-.086-15.714,27.217-20.38-11.767Zm-24.092,37.991-19.972-11.531,15.849-27.451h26.508Zm22.837,15.543,24.206,13.975-48.559,28.2Zm26.177,15.114,19.473,11.242L1984.99-748.34l31.952,18.448-19.1,11.028-51.477-29.481Zm-1.606,60.307-24.571,14.186-24.374-42.217Zm22.1-47.3v33.358l-28.889-16.679Zm-45.416,118.972,13.56,23.614.151-.086L1970.545-595.3l-20.38-11.767Zm-24.092,37.991-19.972-11.53,15.849-27.451h26.508Zm22.837,15.543,24.955,14.408-50.061,29.077Zm48.51-54.525v23.3h-32.168l-13.379-23.3Zm0,25.338v29.912l-21.519,12.5-25.969-14.994,15.829-27.417-.825-1.429h0l.825,1.429Zm-1.838,90.668-28.889-16.679,28.889-16.679Zm-1.021,1.769-19.521,11.271-50.724-29.05,51.521-29.925,18.724,10.81L1984.99-547.71Zm-21.5,12.412-24.15,13.943L1947.335-544.4Zm-78.8-31.847,32.5-56.6,20.376,11.764L1943.636-548.7Zm-15.072-24.28,25.89-44.842,19.975,11.533-32.5,56.589Zm-.635-60.155,24.756,14.293-24.877,43.087Zm24.756-44.078L1901-662.954l.119-56.822Zm16.851,29.186-15.83,27.417-25.772-14.88.052-25.106,25.72-14.849ZM1948.458-688l22.386,38.984h-26.512l-15.849-27.451Zm-31.809-59.357h26.987l25.887,44.837-20.372,11.762Zm0-1.974,32.5-56.6,20.375,11.764-25.887,44.837Zm-15.072-24.28,25.89-44.842,19.975,11.533-32.5,56.589Zm-.635-60.155,24.756,14.293-24.877,43.087Zm24.756-44.078L1901-863.583l.119-56.822Zm16.851,29.186-15.83,27.417-25.772-14.88.052-25.106,25.72-14.849Zm5.913-39.971,22.386,38.984h-26.512l-15.849-27.451Zm-31.808-59.357h26.986l25.887,44.837-20.372,11.762Zm100.291,17.46-19.1,11.028-51.477-29.482,51.1-29.683,19.473,11.242-31.952,18.447Zm-27.868-18.448,28.889-16.679v33.358Zm-42.135-2.623,24.353-42.18L1995.5-979.8Zm48.923,33.241-24.57,14.185-24.374-42.217Zm-79.226-31.6,32.355-56.691,20.531,11.854-25.887,44.837Zm9.058-70.142-24.877,43.087.121-57.381Zm1.769,1.02,19.82,11.443-32.344,56.672-13.364-23.273Zm43.027-29.219-22.2,38.889-19.811-11.438,15.849-27.451Zm1.136,0Zm.57.992,13.785,24.005-15.437,26.738L1950-1008.42Zm47.6,22.3h-32.52l-13.378-23.3h45.9Zm0,31.087-22.268,12.934-25.221-14.561,15.829-27.417-.559-.968h0l.56.968H2019.8Zm-1.838,22.606,1.429,2.476.409.708-1.838-3.184v2.123L1999.5-979.841l20.3-11.788v21.383Zm1.838,64.391-19.911-11.4,18.072-10.434v2.123l1.838-3.185-.409.708-1.429,2.476,1.838-1.062Zm0,57.275h-46.68l-22.953-39.971,20.377-11.764,16.419,28.439,1.178-2.042L1972.313-902.4l25.6-14.78,21.889,12.536v29.662h-31.659l-1.179,2.042H2019.8Zm0,25.271h-32.168l-13.378-23.3H2019.8Zm0,31.087-22.268,12.934-25.221-14.561,15.829-27.417-.825-1.428h0l.825,1.429H2019.8Zm2.042,224.3v-21.7l51.389-29.849-.123,58.848-19.314,11.151v-36.895Zm29.909-14.91v33.358l-28.888-16.679Zm0,39.017v33.358L2022.864-528.2Zm4.9-2.83-1.839-1.062,18.288-10.559-.048,23.212-18.24-10.53Zm-34.811-45.263V-621.7H2071.3Zm0-30.768v-23.3h66.281l33.068,57.586-19.979,11.535-26.457-45.824Zm138.87,51.747h32.838v23.3h-46.68l-22.953-39.971,20.377-11.764,16.419,28.438,1.178-2.042-15.829-27.417,25.6-14.78,21.889,12.536v29.661h-31.659Zm31-98.369,1.429,2.476.409.708h0l.4.691-.2-.339-2.042-3.537v2.123L2173.255-678.9l20.3-11.788V-669.3Zm-31-102.26h32.838v23.3h-46.68L2123.918-789.3l20.377-11.764,16.419,28.438,1.178-2.042-15.829-27.417,25.6-14.78,21.889,12.536v29.661h-31.659Zm31-98.369,1.429,2.476.409.708h0l.354.613-.151-.261-2.042-3.537v2.123l-18.458-10.657,20.3-11.789v21.384Zm-91.248-105.394,15.83,27.417-15.83,27.417-25.772-14.88.052-25.106ZM2074.751-963.9l.119-56.822,24.574,42.565Zm25.714,188.14,15.83,27.417-15.83,27.417-25.772-14.88.052-25.106Zm-25.714,12.489.119-56.822,24.574,42.565Zm15.649,116.23h26.987l25.887,44.837L2122.9-590.439Zm54.195,98.341h-26.512l-15.849-27.451,19.975-11.533Zm-23.927-96.742,48.945,28.032-24.571,14.186Zm-30.273-3.573,32.5-56.6,20.376,11.764-25.887,44.837Zm55.9-97.349,13.56,23.614.151-.087-15.714,27.217-20.38-11.766Zm-24.092,37.99L2102.233-719.9l15.849-27.451h26.508Zm22.836,15.543,24.207,13.975-48.559,28.2Zm-56.349,42.817-13.369-23.28,25.889-44.841,19.975,11.533Zm-14.125-26.055.12-57.38,24.756,14.293Zm27.665-100.711,19.975-11.533,22.386,38.984h-26.512ZM2090.4-847.667h26.987l25.887,44.837L2122.9-791.068Zm30.268,1.6,48.944,28.031-24.571,14.186Zm-3.281-3.573H2090.4l32.5-56.6,20.373,11.763Zm27.655-43.816,24.207,13.976-48.559,28.2ZM2088.7-850.632l-13.374-23.289,25.889-44.841,19.978,11.535ZM2074.568-876.7l.12-57.381,24.756,14.293Zm43.514-71.286h26.508L2122.208-909l-19.974-11.532Zm28.215.991,13.56,23.614.151-.087-15.714,27.217-20.377-11.765Zm1.707-.991h45.547v23.3h-32.169Zm45.547,25.338V-893.6l-22.268,12.933-25.221-14.561,15.829-27.417-.824-1.429h0l.825,1.429Zm-1.838,90.667-28.889-16.678,28.889-16.679Zm-1.021,1.769-19.1,11.028-51.477-29.482,51.1-29.684,19.472,11.242-31.952,18.448Zm2.86,82.854v23.3h-32.169L2148-747.353Zm0,25.339v29.044l-22.268,12.934L2146.063-694.6l15.829-27.417-.824-1.429h0l.825,1.429Zm-1.838,90.668-28.889-16.678,28.889-16.679Zm-1.021,1.769-19.1,11.028-51.477-29.481,51.1-29.683,19.472,11.242-31.952,18.448Zm-44.963,82.854h0Zm47.823,0v23.3h-32.169L2148-546.724Zm-33.543,24.519-15.714,27.217-20.41-11.783,22.412-38.961,13.56,23.614Zm-37.833,14.446-19.942-11.513,15.849-27.452h26.507Zm-21.71-12.534-25.438-14.687.053-25.492,25.385-14.656,15.83,27.417Zm-25.381-42.539.117-56.053,24.242,41.989Zm24.359,44.307L2074.9-476.018l.118-56.607Zm-77.6-130.487v-23.3h51.769l13.378,23.3Zm34.811-99.328-1.839-1.062,17.954-10.365-.049,22.827-17.906-10.338Zm-34.811,73.989v-28.492l49.749,28.492Zm0-30.767v-21.945l31.952,18.447V-745.51l18.921,10.925-.123,58.534Zm1.021-23.713,28.888-16.679v33.358Zm-1.021-40.786v-22.57l51.056-29.655-.125,59.715-18.979,10.958v-36.895Zm29.909-14.91v33.358l-28.888-16.679Zm-29.909-9.942v-27.859h47.963Zm0-29.9v-23.3h66.281l33.068,57.586-19.979,11.535-26.457-45.824h-.317c-.02-.013-.036-.031-.056-.043a.987.987,0,0,0-.989,0l-.072.042Zm0-25.271v-23.3h51.769l13.378,23.3Zm51.056-172.829-.125,59.715L2053.795-951.8v-36.895l-31.952,18.447v-22.57ZM2021.843-995.1v-27.859h47.963Zm29.909,9.942V-951.8l-28.888-16.679Zm0,39.017v33.358l-28.888-16.679Zm4.9-2.83h0l-1.839-1.062L2072.77-960.4l-.049,22.826-17.906-10.338,1.839-1.062Zm-34.811,73.989v-28.492l49.748,28.492Zm0-30.767v-21.945l31.952,18.447v-36.895l18.921,10.925-.123,58.534Zm0-25.481v-2.123L2020-932.29v-33.358l1.838,1.062v-2.123l28.889,16.679-1.839,1.062h0l1.839,1.062Zm99.349-59.482-19.979,11.535L2074.756-1025h-.317c-.02-.013-.036-.031-.056-.043a.987.987,0,0,0-.989,0l-.072.042h-51.479v-23.3h66.281Zm23.4,40.755h-26.512l-15.849-27.451,19.975-11.533Zm25.018-68.71-24.571,14.186-24.374-42.217Zm2.05,1.174,21.889,12.536v29.661h-31.659l-1.179,2.042h32.838v23.3h-46.68l-22.953-39.971,20.377-11.764,16.419,28.438,1.178-2.042-15.829-27.417Zm22.438-13.589-.549.951-.409.708-1.429,2.476,1.838-1.062v20.776l-19.911-11.4,18.073-10.434v2.123l2.042-3.537Zm1.492,166.808v-2.122l28.889,16.679-1.839,1.062,1.839,1.061-28.889,16.679v-2.122l-2.042,3.536h0l-.409.708-1.429,2.476,1.838-1.062V-806.6L2173.641-818l18.072-10.434v2.123l2.042-3.537.409-.708,1.43-2.476-1.839,1.061v-33.358Zm0,194.97v-22.57l51.056-29.655-.125,59.715-18.979,10.958V-687.75Zm29.909-14.91v33.357l-28.888-16.679Zm0,39.017v33.357l-28.888-16.678Zm4.9-2.83h0l-1.838-1.062,17.953-10.366-.047,22.827-17.906-10.338,1.838-1.061Zm-34.811-46.13v-27.859h47.963Zm0-29.9v-23.3h66.281l33.068,57.586-19.979,11.535-26.457-45.824h-.317c-.02-.014-.035-.032-.057-.044a.987.987,0,0,0-.989,0l-.072.042Zm169.87,154.007,1.4,2.42-1.4-2.42v2.122L2347-578.583l20.3-11.789v21.384Zm3.88,1.061v-22.57l51.056-29.655-.126,59.715-18.979,10.958v-36.895Zm29.91-14.91v33.358l-28.888-16.679Zm0,39.017v33.358L2370.364-528.2Zm4.9-2.83-1.838-1.062,17.953-10.365-.048,22.826-17.906-10.338Zm-34.811-46.13V-621.7h47.962Zm0-29.9v-23.3h66.281l33.068,57.586-19.979,11.535-26.457-45.824h-.317c-.02-.013-.035-.031-.056-.043a.987.987,0,0,0-.989,0l-.073.042Zm138.87,51.747h32.837v23.3h-46.68l-22.953-39.971,20.376-11.764,16.419,28.438,1.178-2.042-15.829-27.417,25.6-14.78,21.888,12.536v29.661h-31.659Zm29.978-57.583-19.1,11.028-51.477-29.481,51.1-29.683,19.473,11.242-31.952,18.448Zm-27.868-18.447,28.888-16.679v33.358Zm-62.359-328.362,15.829,27.417-15.829,27.417-25.772-14.88.052-25.106ZM2422.25-963.9l.119-56.822,24.575,42.565Zm-1.851-58.573-.126,59.715L2401.295-951.8v-36.895l-31.952,18.447v-22.57ZM2369.343-995.1v-27.859h47.963Zm0,89.352v-21.945l31.952,18.447v-36.895l18.921,10.925-.123,58.534Zm49.748,30.767h-49.748v-28.492Zm-14.937-73.989h0l-1.838-1.062,17.953-10.365-.048,22.826-17.906-10.338,1.838-1.062Zm-33.79,19.509,28.888-16.679v33.358Zm28.888-55.7V-951.8l-28.888-16.679Zm21.859,112.219,13.378,23.3h-65.146v-23.3Zm-51.769,103.321v-22.57l51.056-29.655-.126,59.715-18.979,10.958v-36.895Zm29.91-14.91v33.358l-28.888-16.679Zm0,39.017v33.358l-28.888-16.679Zm4.9-2.83-1.838-1.062,17.953-10.365-.048,22.826-17.906-10.338Zm-34.811-46.13v-27.859h47.963Zm0-29.9v-23.3h66.281l33.068,57.586-19.979,11.535-26.457-45.824h-.317c-.02-.013-.035-.031-.056-.043a.987.987,0,0,0-.989,0l-.072.042ZM2436.2-650l-13.373-23.289,25.889-44.841,19.978,11.535Zm.57.991h0Zm1.133,1.974h26.987l25.887,44.837L2470.4-590.439Zm54.195,98.341h-26.512l-15.849-27.451,19.975-11.533Zm-23.927-96.742,48.945,28.032-24.571,14.186Zm-20.2-130.318,15.829,27.417-15.829,27.417-25.772-14.88.052-25.106Zm-25.715,12.489.119-56.822,24.575,42.565Zm43.332,15.915h26.508l-22.382,38.984L2449.733-719.9Zm4.818,41.741,20.373,11.763-25.887,44.837H2437.9Zm-48.333,29.545.121-57.38,24.756,14.293Zm42.819-173.575H2437.9l32.5-56.6,20.373,11.763Zm27.655-43.816,24.206,13.976-48.559,28.2ZM2469.708-909l-19.975-11.532,15.849-27.451h26.508ZM2436.2-850.632l-13.374-23.289,25.889-44.841,19.978,11.535Zm.569.991Zm-14.7-27.055.12-57.381,24.756,14.293Zm27.665-100.711,19.975-11.533,22.386,38.984h-26.512ZM2493.8-946.99l13.56,23.614.151-.087-15.714,27.217-20.377-11.765Zm1.708-.991h45.546v23.3h-32.168Zm45.546,25.338V-893.6l-22.267,12.933-25.221-14.561,15.829-27.417-.825-1.429h0l.825,1.429Zm-2.859,55.541-30.242,17.46H2469.3l49.416-28.7Zm-21.08,49.065-24.57,14.186-24.374-42.217Zm-26.339,15.207L2470.4-791.068l-32.5-56.6h26.987Zm1.321,53.5h-26.512l-15.849-27.451,19.975-11.533Zm1.7,2.965,13.56,23.614.151-.087-15.714,27.217-20.377-11.764Zm-1.255,53.533,24.205,13.975-48.558,28.2Zm.687,146.1h0Zm47.822,0v23.3h-32.168l-13.378-23.3Zm-33.542,24.519-15.714,27.217L2471.4-506.761l22.394-38.971,13.56,23.614Zm-37.815,14.457-19.96-11.524,15.849-27.452h26.508Zm-21.728-12.545-25.772-14.88.052-25.106,25.72-14.85,15.829,27.417h0Zm-25.715-42.346.119-56.822,24.575,42.565Zm24.694,44.114-24.876,43.087.12-57.381Zm-77.6-130.487v-23.3h51.769l13.378,23.3Zm0-25.338v-28.492l49.748,28.492Zm0-30.767v-21.945l31.952,18.447V-745.51l18.921,10.925-.123,58.534Zm0-25.482v-2.123l-2.042,3.537h0l-.409.708L2365.463-726l1.838-1.062v20.776l-19.91-11.4,18.072-10.434V-726l2.042-3.537.409-.708,1.43-2.476-1.839,1.062v-33.358l1.839,1.062-1.43-2.476-.409-.708-2.042-3.536v2.123L2347-779.212,2367.3-791v21.384l-1.838-1.062,1.429,2.476.409.708,2.042,3.537v-2.123l28.889,16.679-1.839,1.062,1.839,1.062Zm-34.88-142.339H2367.3v23.3h-46.68l-22.953-39.971,20.376-11.764,16.419,28.439,1.179-2.042L2319.813-902.4l25.6-14.78,21.889,12.537v29.661h-31.659Zm29.978-57.583-19.1,11.028-51.476-29.482,51.105-29.683,19.472,11.242-31.952,18.447Zm-27.868-18.448,28.889-16.679v33.358ZM2294.942-890.4l-19.979,11.535-26.457-45.824h-.317c-.02-.014-.035-.031-.057-.044a.987.987,0,0,0-.989,0l-.072.042h-51.479v-23.3h66.281Zm-31.926-59.56Zm-67.423,80.024V-892.5l51.056-29.655-.125,59.715-18.979,10.958v-36.895Zm29.909-14.91v33.358l-28.888-16.679Zm0,39.017v33.358l-28.888-16.678Zm4.9-2.829-1.838-1.062,17.953-10.366-.047,22.826-17.906-10.338Zm-34.811-46.13v-27.859h47.963Zm78.622,219.342,15.83,27.417-15.83,27.417-25.772-14.88.052-25.106ZM2248.5-662.954l.119-56.822,24.574,42.565Zm85.963-9.355H2367.3v23.3h-46.68l-22.953-39.971,20.376-11.764,16.419,28.439,1.179-2.042-15.829-27.417,25.6-14.78,21.889,12.537v29.661h-31.659Zm29.978-57.583-19.1,11.028-51.476-29.481,51.105-29.684,19.472,11.243L2332.49-748.34Zm-27.868-18.448,28.889-16.679v33.358Zm-16.527-98.336,13.56,23.614.151-.086-15.714,27.217-20.38-11.767Zm-.569-.991Zm-45.263-28.4,15.83,27.417-15.83,27.417-25.772-14.88.052-25.106ZM2248.5-863.583l.119-56.822,24.574,42.565Zm43.332,15.916h26.507l-22.385,38.982-19.972-11.531Zm-15.849-29.426,19.975-11.532,22.386,38.984h-26.512Zm42.808,83.95L2343-779.167l-48.559,28.2Zm24.571,75.421-24.571,14.185-24.374-42.216Zm-23.884,70.684Zm.569.991,13.56,23.614.151-.087L2318.044-595.3l-20.377-11.765Zm47.254-.991v23.3h-32.169l-13.378-23.3Zm0,25.338v29.045l-22.268,12.934-25.221-14.561,15.829-27.417-.825-1.429h0l.825,1.429ZM2343-578.539l-48.558,28.2,24.352-42.18ZM2291.136-548.7h-26.982l32.5-56.6,20.373,11.762Zm4.821-59.358-19.974-11.532,15.849-27.451h26.507Zm-19.974-68.408L2295.958-688l22.386,38.984h-26.512Zm-11.834-70.89h26.987l25.887,44.837-20.372,11.762Zm0-1.974,32.5-56.6,20.376,11.764-25.887,44.837Zm-1.7-1-13.369-23.28,25.889-44.842,19.975,11.533Zm-14.125-26.055.12-57.38,24.756,14.293Zm15.832-171.6h26.987l25.887,44.837-20.372,11.762Zm30.268,1.6,48.944,28.031-24.571,14.185Zm-30.266-3.573,32.26-56.737,20.612,11.9-25.887,44.837Zm54.64-43.816L2343-979.8l-48.559,28.2Zm48.51,146.1v23.3h-32.169l-13.378-23.3Zm0,25.338v29.045l-22.268,12.934-25.221-14.561,15.829-27.417-.825-1.428h0l.825,1.429Zm-1.838,291.3-28.889-16.679,28.889-16.679Zm-1.021,1.769-19.1,11.028-51.476-29.482,51.105-29.684,19.472,11.243L2332.49-547.71Zm-21.08,12.17-24.571,14.185-24.374-42.217Zm-26.339,15.206-20.372,11.762-32.5-56.6h26.987Zm-54.577-47.8-13.373-23.288,25.889-44.842,19.978,11.535Zm-14.129-26.063.12-57.381,24.756,14.293Zm-52.725-173.575v-23.3h51.768l13.378,23.3Zm0-25.339v-28.492l49.748,28.492Zm0-30.767v-21.945l31.952,18.448v-36.895l18.921,10.924-.123,58.534Zm0-198.354,49.748,28.492h-49.748Zm29.909-9.31-28.888-16.678,28.888-16.679Zm20.964-22.433L2246.343-977l-50.75-29.066v-21.945l31.952,18.448v-36.895Zm.9,62.276,13.378,23.3h-65.146v-23.3Zm25.833-46.845-24.876,43.087.12-57.381Zm1.769,1.02,19.74,11.4-32.257,56.731-13.372-23.286ZM2317.8-1048.3l-22.084,38.841-19.728-11.39,15.849-27.451Zm1.136,0Zm.571.994,13.881,24.174-15.34,26.568-20.623-11.907Zm47.8,22.3h-32.715l-13.378-23.3H2367.3Zm0,31.087-22.268,12.934-25.221-14.561,15.829-27.417-.608-1.052h0l.608,1.052H2367.3Zm0,25.79,2.042,3.537v-2.123l28.889,16.679-1.839,1.062h0l1.839,1.062-28.889,16.679v-2.123l-2.042,3.537h0l-.409.708-1.429,2.476,1.838-1.062v20.776l-19.911-11.4,18.073-10.434v2.123l2.042-3.537.409-.708,1.43-2.476-1.839,1.062v-33.358l1.839,1.062-1.43-2.476-.409-.708-2.042-3.536v2.123L2347-979.841l20.3-11.789v21.384l-1.838-1.061,1.429,2.476.409.708Zm68.322-80.173,33.068,57.586-19.979,11.535L2422.256-1025h-.317c-.02-.013-.035-.031-.056-.043a.987.987,0,0,0-.989,0l-.072.042h-51.479v-23.3Zm29.263,0,25.887,44.837L2470.4-991.7l-32.5-56.6Zm52.225,29.63-24.57,14.186-24.374-42.217Zm2.05,1.174,21.888,12.536v29.661h-31.659l-1.178,2.042h32.837v23.3h-46.68l-22.953-39.971,20.376-11.764,16.419,28.438,1.178-2.042-15.829-27.417Zm22.438-13.589-.549.951-.409.708-1.429,2.476,1.838-1.062v20.776l-19.911-11.4,18.073-10.434v2.123l2.042-3.537Zm-2.388,160.087v2.123l-18.458-10.657,20.3-11.789v21.384l-1.838-1.062,1.429,2.476.409.708h0l.354.613-.151-.261Zm0,39.017-28.888-16.678,28.888-16.679Zm-20.122,12.8-49.742-28.489h38.6l30.242,17.46Zm21.96,69.852h-46.68L2471.418-789.3l20.376-11.764,16.419,28.438,1.178-2.042-15.829-27.417,25.6-14.78,21.888,12.536v29.661h-31.659l-1.178,2.042h32.837Zm0,25.271h-32.168l-13.378-23.3h45.546Zm0,31.086-22.267,12.934L2493.563-694.6l15.829-27.417-.825-1.429h0l.825,1.429h31.659Zm.2,26.143-2.042-3.537v2.123L2520.755-678.9l20.3-11.788V-669.3l-1.838-1.062,1.429,2.476.409.708h0l.4.691Zm-.2,37.956h0l-.409.708-1.429,2.476,1.838-1.061v20.776l-19.91-11.4,18.072-10.434v2.123l2.042-3.537.346-.6Zm-47.488,134.9,15.829-27.417-.825-1.429h0l.825,1.429h31.659v29.044l-22.267,12.934Zm-25.373,43.948,24.353-42.18,24.206,13.976Zm-30.332,1.636,32.529-56.608,20.387,11.771-25.887,44.837Zm-1.7-1-13.332-23.281,25.891-44.843,19.964,11.526Zm-66.811-22.3h51.766l13.341,23.3h-65.107Zm0-30.534,49.748,28.492h-49.748Zm0-24.22,31.952,18.447v-36.895l18.921,10.925-.123,58.534-50.751-29.066Zm0-5.66-2.042,3.537h0l-.409.708-1.429,2.476,1.838-1.062v20.776l-19.91-11.4,18.072-10.434v2.123l2.042-3.537.409-.708,1.43-2.476-1.839,1.062v-33.358l1.839,1.062-1.43-2.476-.409-.708-.582-1.007.378.655,2.042,3.537v-2.123l28.889,16.679-1.839,1.062,1.839,1.062-28.889,16.679Zm-48.722,83.71-22.953-39.971,20.376-11.764,16.419,28.439,1.179-2.042-15.829-27.417,25.6-14.78,21.889,12.536v29.662h-31.659l-1.179,2.042H2367.3v23.3Zm-44.638-27.451,19.975-11.532,22.386,38.983h-26.512Zm-27.483,13.51.119-56.822,24.574,42.565Zm-51.886-4.58,28.888-16.678v33.357Zm-1.021-24.338,51.056-29.655-.125,59.715-18.979,10.958V-487.12l-31.952,18.448Zm0-30.142h47.963l-47.963,27.859Zm0-25.339h66.28l33.069,57.586L2274.963-477.6l-26.457-45.824h-.317a.682.682,0,0,0-.056-.043.985.985,0,0,0-.989,0l-.072.042h-51.479Zm0-25.271h51.768l13.378,23.3h-65.146Zm0-30.533,49.748,28.492h-49.748Zm0-24.22,31.952,18.448V-645.2l18.921,10.924-.123,58.534-50.75-29.066Zm0-5.659-1.839,1.062V-664.7l1.839,1.061v-2.123l28.889,16.679-1.839,1.062h0l1.839,1.061-28.889,16.679Zm-2.042,3.536h0l-.409.708-1.429,2.476,1.838-1.061v20.776l-19.911-11.4,18.072-10.434v2.123l2.042-3.537.346-.6Zm-47.489,134.9,15.829-27.417-.824-1.429h0l.825,1.429h31.659v29.044l-22.268,12.934Zm-25.373,43.948,24.352-42.18,24.207,13.976Zm-30.392,1.637L2122.867-505l20.406,11.782-25.887,44.837Zm-1.139,0Zm-.569-.99-13.32-23.2,25.943-44.934,19.944,11.515Zm-66.747-22.306H2073.5l13.377,23.3h-65.039Zm0-30.051,48.9,28.009h-48.9Zm0-24.7,31.952,18.447v-36.895l19.255,11.117-.124,59.015L2021.843-504ZM2020-564.389l1.838,1.062v-2.123l28.889,16.679-1.839,1.062,1.839,1.062-28.889,16.679v-2.123l-1.805,3.127.376-.65,1.43-2.476L2020-531.031Zm1.838-199.568-1.43-2.476-.409-.708-2.042-3.536v2.123L1999.5-779.212,2019.8-791v21.383l-1.838-1.062,1.429,2.476.409.708,2.042,3.537v-2.123l28.889,16.679-1.839,1.062,1.839,1.062L2021.843-730.6v-2.123L2020-731.661v-33.358Zm-1.885,235.128-.157.273h0l-.409.708-1.429,2.476,1.838-1.062v21.259l-20.331-11.644,18.493-10.676v2.123Zm-46.837,80.446-22.953-39.971,20.377-11.764,16.419,28.439,1.178-2.042-15.829-27.417,25.179-14.537L2019.8-502.9v29.178h-31.659l-1.179,2.042H2019.8v23.3Zm-44.638-27.451,19.975-11.532,22.386,38.983h-26.512ZM1901-462.325l.119-56.822,24.574,42.565Zm-23,12.1L1849.114-466.9,1878-483.583Z" transform="translate(-1848.093 1049.283)"/></g></g></g></svg>